<?xml version="1.0" encoding="UTF-8" standalone="no"?>
<!DOCTYPE svg PUBLIC "-//W3C//DTD SVG 1.1//EN"
 "http://www.w3.org/Graphics/SVG/1.1/DTD/svg11.dtd">
<!-- Generated by graphviz version 2.40.1 (20161225.0304)
 -->
<!-- Title: %3 Pages: 1 -->
<svg width="481pt" height="52pt"
 viewBox="0.00 0.00 480.60 52.00" xmlns="http://www.w3.org/2000/svg" xmlns:xlink="http://www.w3.org/1999/xlink">
<g id="graph0" class="graph" transform="scale(1 1) rotate(0) translate(4 48)">
<title>%3</title>
<polygon fill="#ffffff" stroke="transparent" points="-4,4 -4,-48 476.6,-48 476.6,4 -4,4"/>
<!-- ini -->
<g id="node1" class="node">
<title>ini</title>
<ellipse fill="#000000" stroke="#000000" cx="1.8" cy="-22" rx="1.8" ry="1.8"/>
</g>
<!-- e0 -->
<g id="node2" class="node">
<title>e0</title>
<ellipse fill="none" stroke="#000000" cx="67.6" cy="-22" rx="27" ry="18"/>
<text text-anchor="middle" x="67.6" y="-18.3" font-family="Times,serif" font-size="14.00" fill="#000000">e0</text>
</g>
<!-- ini&#45;&gt;e0 -->
<g id="edge1" class="edge">
<title>ini&#45;&gt;e0</title>
<path fill="none" stroke="#000000" d="M3.6983,-22C7.9356,-22 18.702,-22 30.2151,-22"/>
<polygon fill="#000000" stroke="#000000" points="30.3795,-25.5001 40.3795,-22 30.3794,-18.5001 30.3795,-25.5001"/>
</g>
<!-- e1 -->
<g id="node3" class="node">
<title>e1</title>
<ellipse fill="none" stroke="#000000" cx="164.6" cy="-22" rx="27" ry="18"/>
<text text-anchor="middle" x="164.6" y="-18.3" font-family="Times,serif" font-size="14.00" fill="#000000">e1</text>
</g>
<!-- e0&#45;&gt;e1 -->
<g id="edge2" class="edge">
<title>e0&#45;&gt;e1</title>
<path fill="none" stroke="#000000" d="M94.6199,-22C104.7304,-22 116.4016,-22 127.2794,-22"/>
<polygon fill="#000000" stroke="#000000" points="127.3886,-25.5001 137.3886,-22 127.3885,-18.5001 127.3886,-25.5001"/>
<text text-anchor="middle" x="116.1" y="-25.8" font-family="Times,serif" font-size="14.00" fill="#000000">ε</text>
</g>
<!-- e2 -->
<g id="node4" class="node">
<title>e2</title>
<ellipse fill="none" stroke="#000000" cx="264.6" cy="-22" rx="27" ry="18"/>
<text text-anchor="middle" x="264.6" y="-18.3" font-family="Times,serif" font-size="14.00" fill="#000000">e2</text>
</g>
<!-- e1&#45;&gt;e2 -->
<g id="edge3" class="edge">
<title>e1&#45;&gt;e2</title>
<path fill="none" stroke="#000000" d="M191.6614,-22C202.6669,-22 215.5653,-22 227.43,-22"/>
<polygon fill="#000000" stroke="#000000" points="227.517,-25.5001 237.5169,-22 227.5169,-18.5001 227.517,-25.5001"/>
<text text-anchor="middle" x="214.6" y="-25.8" font-family="Times,serif" font-size="14.00" fill="#000000">D</text>
</g>
<!-- e2&#45;&gt;e1 -->
<g id="edge4" class="edge">
<title>e2&#45;&gt;e1</title>
<path fill="none" stroke="#000000" d="M244.8416,-9.6979C234.5231,-4.6864 221.5807,-.5744 209.6,-3 204.8623,-3.9592 200.0035,-5.4332 195.3123,-7.1452"/>
<polygon fill="#000000" stroke="#000000" points="193.9706,-3.9123 186.0111,-10.9048 196.594,-10.4022 193.9706,-3.9123"/>
<text text-anchor="middle" x="214.6" y="-6.8" font-family="Times,serif" font-size="14.00" fill="#000000">ε</text>
</g>
<!-- e3 -->
<g id="node5" class="node">
<title>e3</title>
<ellipse fill="none" stroke="#000000" cx="361.6" cy="-22" rx="27" ry="18"/>
<text text-anchor="middle" x="361.6" y="-18.3" font-family="Times,serif" font-size="14.00" fill="#000000">e3</text>
</g>
<!-- e2&#45;&gt;e3 -->
<g id="edge5" class="edge">
<title>e2&#45;&gt;e3</title>
<path fill="none" stroke="#000000" d="M291.6199,-22C301.7304,-22 313.4016,-22 324.2794,-22"/>
<polygon fill="#000000" stroke="#000000" points="324.3886,-25.5001 334.3886,-22 324.3885,-18.5001 324.3886,-25.5001"/>
<text text-anchor="middle" x="313.1" y="-25.8" font-family="Times,serif" font-size="14.00" fill="#000000">ε</text>
</g>
<!-- ef -->
<g id="node6" class="node">
<title>ef</title>
<ellipse fill="none" stroke="#000000" cx="450.6" cy="-22" rx="18" ry="18"/>
<ellipse fill="none" stroke="#000000" cx="450.6" cy="-22" rx="22" ry="22"/>
<text text-anchor="middle" x="450.6" y="-18.3" font-family="Times,serif" font-size="14.00" fill="#000000">ef</text>
</g>
<!-- e3&#45;&gt;ef -->
<g id="edge6" class="edge">
<title>e3&#45;&gt;ef</title>
<path fill="none" stroke="#000000" d="M388.7865,-22C398.0967,-22 408.6047,-22 418.2804,-22"/>
<polygon fill="#000000" stroke="#000000" points="418.3568,-25.5001 428.3568,-22 418.3568,-18.5001 418.3568,-25.5001"/>
<text text-anchor="middle" x="408.6" y="-25.8" font-family="Times,serif" font-size="14.00" fill="#000000">.</text>
</g>
</g>
</svg>
