<?xml version="1.0" encoding="UTF-8" standalone="no"?>
<!DOCTYPE svg PUBLIC "-//W3C//DTD SVG 1.1//EN"
 "http://www.w3.org/Graphics/SVG/1.1/DTD/svg11.dtd">
<!-- Generated by graphviz version 2.40.1 (20161225.0304)
 -->
<!-- Title: %3 Pages: 1 -->
<svg width="677pt" height="170pt"
 viewBox="0.00 0.00 676.60 170.00" xmlns="http://www.w3.org/2000/svg" xmlns:xlink="http://www.w3.org/1999/xlink">
<g id="graph0" class="graph" transform="scale(1 1) rotate(0) translate(4 166)">
<title>%3</title>
<polygon fill="#ffffff" stroke="transparent" points="-4,4 -4,-166 672.6,-166 672.6,4 -4,4"/>
<!-- ini -->
<g id="node1" class="node">
<title>ini</title>
<ellipse fill="#000000" stroke="#000000" cx="1.8" cy="-22" rx="1.8" ry="1.8"/>
</g>
<!-- e0 -->
<g id="node2" class="node">
<title>e0</title>
<ellipse fill="none" stroke="#000000" cx="67.6" cy="-22" rx="27" ry="18"/>
<text text-anchor="middle" x="67.6" y="-18.3" font-family="Times,serif" font-size="14.00" fill="#000000">e0</text>
</g>
<!-- ini&#45;&gt;e0 -->
<g id="edge1" class="edge">
<title>ini&#45;&gt;e0</title>
<path fill="none" stroke="#000000" d="M3.6983,-22C7.9356,-22 18.702,-22 30.2151,-22"/>
<polygon fill="#000000" stroke="#000000" points="30.3795,-25.5001 40.3795,-22 30.3794,-18.5001 30.3795,-25.5001"/>
</g>
<!-- e2 -->
<g id="node3" class="node">
<title>e2</title>
<ellipse fill="none" stroke="#000000" cx="164.6" cy="-64" rx="27" ry="18"/>
<text text-anchor="middle" x="164.6" y="-60.3" font-family="Times,serif" font-size="14.00" fill="#000000">e2</text>
</g>
<!-- e0&#45;&gt;e2 -->
<g id="edge2" class="edge">
<title>e0&#45;&gt;e2</title>
<path fill="none" stroke="#000000" d="M90.5876,-31.9534C103.0302,-37.3409 118.6045,-44.0844 132.2524,-49.9938"/>
<polygon fill="#000000" stroke="#000000" points="131.2099,-53.3564 141.7774,-54.118 133.9914,-46.9327 131.2099,-53.3564"/>
<text text-anchor="middle" x="116.1" y="-47.8" font-family="Times,serif" font-size="14.00" fill="#000000">ε</text>
</g>
<!-- e1 -->
<g id="node9" class="node">
<title>e1</title>
<ellipse fill="none" stroke="#000000" cx="554.6" cy="-22" rx="27" ry="18"/>
<text text-anchor="middle" x="554.6" y="-18.3" font-family="Times,serif" font-size="14.00" fill="#000000">e1</text>
</g>
<!-- e0&#45;&gt;e1 -->
<g id="edge3" class="edge">
<title>e0&#45;&gt;e1</title>
<path fill="none" stroke="#000000" d="M92.9406,-15.4922C112.4031,-11.0625 140.0223,-6 164.6,-6 164.6,-6 164.6,-6 457.6,-6 478.2414,-6 501.0281,-9.5708 519.3266,-13.3386"/>
<polygon fill="#000000" stroke="#000000" points="518.7448,-16.7937 529.2594,-15.4922 520.2281,-9.9526 518.7448,-16.7937"/>
<text text-anchor="middle" x="311.1" y="-9.8" font-family="Times,serif" font-size="14.00" fill="#000000">ε</text>
</g>
<!-- e6 -->
<g id="node4" class="node">
<title>e6</title>
<ellipse fill="none" stroke="#000000" cx="261.6" cy="-144" rx="27" ry="18"/>
<text text-anchor="middle" x="261.6" y="-140.3" font-family="Times,serif" font-size="14.00" fill="#000000">e6</text>
</g>
<!-- e2&#45;&gt;e6 -->
<g id="edge4" class="edge">
<title>e2&#45;&gt;e6</title>
<path fill="none" stroke="#000000" d="M181.9417,-78.3024C197.1147,-90.8162 219.3433,-109.1491 236.4661,-123.271"/>
<polygon fill="#000000" stroke="#000000" points="234.4668,-126.1589 244.4085,-129.8214 238.9207,-120.7586 234.4668,-126.1589"/>
<text text-anchor="middle" x="213.1" y="-109.8" font-family="Times,serif" font-size="14.00" fill="#000000">ε</text>
</g>
<!-- e3 -->
<g id="node6" class="node">
<title>e3</title>
<ellipse fill="none" stroke="#000000" cx="261.6" cy="-90" rx="27" ry="18"/>
<text text-anchor="middle" x="261.6" y="-86.3" font-family="Times,serif" font-size="14.00" fill="#000000">e3</text>
</g>
<!-- e2&#45;&gt;e3 -->
<g id="edge5" class="edge">
<title>e2&#45;&gt;e3</title>
<path fill="none" stroke="#000000" d="M189.8324,-70.7633C201.0592,-73.7726 214.4659,-77.3661 226.6365,-80.6283"/>
<polygon fill="#000000" stroke="#000000" points="225.9287,-84.0621 236.4939,-83.2705 227.7411,-77.3008 225.9287,-84.0621"/>
<text text-anchor="middle" x="213.1" y="-80.8" font-family="Times,serif" font-size="14.00" fill="#000000">ε</text>
</g>
<!-- e7 -->
<g id="node5" class="node">
<title>e7</title>
<ellipse fill="none" stroke="#000000" cx="360.6" cy="-144" rx="27" ry="18"/>
<text text-anchor="middle" x="360.6" y="-140.3" font-family="Times,serif" font-size="14.00" fill="#000000">e7</text>
</g>
<!-- e6&#45;&gt;e7 -->
<g id="edge6" class="edge">
<title>e6&#45;&gt;e7</title>
<path fill="none" stroke="#000000" d="M288.6522,-144C299.3472,-144 311.816,-144 323.3404,-144"/>
<polygon fill="#000000" stroke="#000000" points="323.5806,-147.5001 333.5805,-144 323.5805,-140.5001 323.5806,-147.5001"/>
<text text-anchor="middle" x="311.1" y="-147.8" font-family="Times,serif" font-size="14.00" fill="#000000">L</text>
</g>
<!-- e5 -->
<g id="node8" class="node">
<title>e5</title>
<ellipse fill="none" stroke="#000000" cx="457.6" cy="-64" rx="27" ry="18"/>
<text text-anchor="middle" x="457.6" y="-60.3" font-family="Times,serif" font-size="14.00" fill="#000000">e5</text>
</g>
<!-- e7&#45;&gt;e5 -->
<g id="edge7" class="edge">
<title>e7&#45;&gt;e5</title>
<path fill="none" stroke="#000000" d="M377.9417,-129.6976C393.1147,-117.1838 415.3433,-98.8509 432.4661,-84.729"/>
<polygon fill="#000000" stroke="#000000" points="434.9207,-87.2414 440.4085,-78.1786 430.4668,-81.8411 434.9207,-87.2414"/>
<text text-anchor="middle" x="409.1" y="-109.8" font-family="Times,serif" font-size="14.00" fill="#000000">ε</text>
</g>
<!-- e4 -->
<g id="node7" class="node">
<title>e4</title>
<ellipse fill="none" stroke="#000000" cx="360.6" cy="-90" rx="27" ry="18"/>
<text text-anchor="middle" x="360.6" y="-86.3" font-family="Times,serif" font-size="14.00" fill="#000000">e4</text>
</g>
<!-- e3&#45;&gt;e4 -->
<g id="edge8" class="edge">
<title>e3&#45;&gt;e4</title>
<path fill="none" stroke="#000000" d="M288.6522,-90C299.3472,-90 311.816,-90 323.3404,-90"/>
<polygon fill="#000000" stroke="#000000" points="323.5806,-93.5001 333.5805,-90 323.5805,-86.5001 323.5806,-93.5001"/>
<text text-anchor="middle" x="311.1" y="-93.8" font-family="Times,serif" font-size="14.00" fill="#000000">S</text>
</g>
<!-- e4&#45;&gt;e5 -->
<g id="edge9" class="edge">
<title>e4&#45;&gt;e5</title>
<path fill="none" stroke="#000000" d="M385.8324,-83.2367C397.0592,-80.2274 410.4659,-76.6339 422.6365,-73.3717"/>
<polygon fill="#000000" stroke="#000000" points="423.7411,-76.6992 432.4939,-70.7295 421.9287,-69.9379 423.7411,-76.6992"/>
<text text-anchor="middle" x="409.1" y="-80.8" font-family="Times,serif" font-size="14.00" fill="#000000">ε</text>
</g>
<!-- e5&#45;&gt;e2 -->
<g id="edge10" class="edge">
<title>e5&#45;&gt;e2</title>
<path fill="none" stroke="#000000" d="M430.3418,-63.5202C417.3926,-63.3155 401.6983,-63.1007 387.6,-63 319.6017,-62.5143 302.5983,-62.5143 234.6,-63 224.0263,-63.0755 212.5548,-63.2152 202.017,-63.3667"/>
<polygon fill="#000000" stroke="#000000" points="201.8042,-59.8694 191.8582,-63.5202 201.91,-66.8686 201.8042,-59.8694"/>
<text text-anchor="middle" x="311.1" y="-65.8" font-family="Times,serif" font-size="14.00" fill="#000000">ε</text>
</g>
<!-- e5&#45;&gt;e1 -->
<g id="edge11" class="edge">
<title>e5&#45;&gt;e1</title>
<path fill="none" stroke="#000000" d="M480.5876,-54.0466C493.0302,-48.6591 508.6045,-41.9156 522.2524,-36.0062"/>
<polygon fill="#000000" stroke="#000000" points="523.9914,-39.0673 531.7774,-31.882 521.2099,-32.6436 523.9914,-39.0673"/>
<text text-anchor="middle" x="506.1" y="-47.8" font-family="Times,serif" font-size="14.00" fill="#000000">ε</text>
</g>
<!-- ef -->
<g id="node10" class="node">
<title>ef</title>
<ellipse fill="none" stroke="#000000" cx="646.6" cy="-22" rx="18" ry="18"/>
<ellipse fill="none" stroke="#000000" cx="646.6" cy="-22" rx="22" ry="22"/>
<text text-anchor="middle" x="646.6" y="-18.3" font-family="Times,serif" font-size="14.00" fill="#000000">ef</text>
</g>
<!-- e1&#45;&gt;ef -->
<g id="edge12" class="edge">
<title>e1&#45;&gt;ef</title>
<path fill="none" stroke="#000000" d="M581.7054,-22C591.8821,-22 603.552,-22 614.1642,-22"/>
<polygon fill="#000000" stroke="#000000" points="614.3294,-25.5001 624.3294,-22 614.3293,-18.5001 614.3294,-25.5001"/>
<text text-anchor="middle" x="603.1" y="-25.8" font-family="Times,serif" font-size="14.00" fill="#000000">8</text>
</g>
</g>
</svg>
