<?xml version="1.0" encoding="UTF-8" standalone="no"?>
<!DOCTYPE svg PUBLIC "-//W3C//DTD SVG 1.1//EN"
 "http://www.w3.org/Graphics/SVG/1.1/DTD/svg11.dtd">
<!-- Generated by graphviz version 2.40.1 (20161225.0304)
 -->
<!-- Title: %3 Pages: 1 -->
<svg width="2530pt" height="174pt"
 viewBox="0.00 0.00 2529.60 174.00" xmlns="http://www.w3.org/2000/svg" xmlns:xlink="http://www.w3.org/1999/xlink">
<g id="graph0" class="graph" transform="scale(1 1) rotate(0) translate(4 170)">
<title>%3</title>
<polygon fill="#ffffff" stroke="transparent" points="-4,4 -4,-170 2525.6,-170 2525.6,4 -4,4"/>
<!-- ini -->
<g id="node1" class="node">
<title>ini</title>
<ellipse fill="#000000" stroke="#000000" cx="1.8" cy="-22" rx="1.8" ry="1.8"/>
</g>
<!-- e0 -->
<g id="node2" class="node">
<title>e0</title>
<ellipse fill="none" stroke="#000000" cx="67.6" cy="-22" rx="27" ry="18"/>
<text text-anchor="middle" x="67.6" y="-18.3" font-family="Times,serif" font-size="14.00" fill="#000000">e0</text>
</g>
<!-- ini&#45;&gt;e0 -->
<g id="edge1" class="edge">
<title>ini&#45;&gt;e0</title>
<path fill="none" stroke="#000000" d="M3.6983,-22C7.9356,-22 18.702,-22 30.2151,-22"/>
<polygon fill="#000000" stroke="#000000" points="30.3795,-25.5001 40.3795,-22 30.3794,-18.5001 30.3795,-25.5001"/>
</g>
<!-- e25 -->
<g id="node3" class="node">
<title>e25</title>
<ellipse fill="none" stroke="#000000" cx="164.6" cy="-52" rx="27" ry="18"/>
<text text-anchor="middle" x="164.6" y="-48.3" font-family="Times,serif" font-size="14.00" fill="#000000">e25</text>
</g>
<!-- e0&#45;&gt;e25 -->
<g id="edge2" class="edge">
<title>e0&#45;&gt;e25</title>
<path fill="none" stroke="#000000" d="M92.3282,-29.6479C103.8436,-33.2094 117.7345,-37.5055 130.2482,-41.3757"/>
<polygon fill="#000000" stroke="#000000" points="129.3293,-44.755 139.917,-44.3661 131.3976,-38.0676 129.3293,-44.755"/>
<text text-anchor="middle" x="116.1" y="-40.8" font-family="Times,serif" font-size="14.00" fill="#000000">ε</text>
</g>
<!-- e1 -->
<g id="node9" class="node">
<title>e1</title>
<ellipse fill="none" stroke="#000000" cx="554.6" cy="-22" rx="27" ry="18"/>
<text text-anchor="middle" x="554.6" y="-18.3" font-family="Times,serif" font-size="14.00" fill="#000000">e1</text>
</g>
<!-- e0&#45;&gt;e1 -->
<g id="edge3" class="edge">
<title>e0&#45;&gt;e1</title>
<path fill="none" stroke="#000000" d="M92.9406,-15.4922C112.4031,-11.0625 140.0223,-6 164.6,-6 164.6,-6 164.6,-6 457.6,-6 478.2414,-6 501.0281,-9.5708 519.3266,-13.3386"/>
<polygon fill="#000000" stroke="#000000" points="518.7448,-16.7937 529.2594,-15.4922 520.2281,-9.9526 518.7448,-16.7937"/>
<text text-anchor="middle" x="311.1" y="-9.8" font-family="Times,serif" font-size="14.00" fill="#000000">ε</text>
</g>
<!-- e29 -->
<g id="node4" class="node">
<title>e29</title>
<ellipse fill="none" stroke="#000000" cx="261.6" cy="-106" rx="27" ry="18"/>
<text text-anchor="middle" x="261.6" y="-102.3" font-family="Times,serif" font-size="14.00" fill="#000000">e29</text>
</g>
<!-- e25&#45;&gt;e29 -->
<g id="edge4" class="edge">
<title>e25&#45;&gt;e29</title>
<path fill="none" stroke="#000000" d="M185.6476,-63.7172C199.1213,-71.218 216.8098,-81.0652 231.7264,-89.3694"/>
<polygon fill="#000000" stroke="#000000" points="230.1537,-92.4996 240.5935,-94.3057 233.5586,-86.3835 230.1537,-92.4996"/>
<text text-anchor="middle" x="213.1" y="-83.8" font-family="Times,serif" font-size="14.00" fill="#000000">ε</text>
</g>
<!-- e26 -->
<g id="node6" class="node">
<title>e26</title>
<ellipse fill="none" stroke="#000000" cx="261.6" cy="-52" rx="27" ry="18"/>
<text text-anchor="middle" x="261.6" y="-48.3" font-family="Times,serif" font-size="14.00" fill="#000000">e26</text>
</g>
<!-- e25&#45;&gt;e26 -->
<g id="edge5" class="edge">
<title>e25&#45;&gt;e26</title>
<path fill="none" stroke="#000000" d="M191.6199,-52C201.7304,-52 213.4016,-52 224.2794,-52"/>
<polygon fill="#000000" stroke="#000000" points="224.3886,-55.5001 234.3886,-52 224.3885,-48.5001 224.3886,-55.5001"/>
<text text-anchor="middle" x="213.1" y="-55.8" font-family="Times,serif" font-size="14.00" fill="#000000">ε</text>
</g>
<!-- e30 -->
<g id="node5" class="node">
<title>e30</title>
<ellipse fill="none" stroke="#000000" cx="360.6" cy="-106" rx="27" ry="18"/>
<text text-anchor="middle" x="360.6" y="-102.3" font-family="Times,serif" font-size="14.00" fill="#000000">e30</text>
</g>
<!-- e29&#45;&gt;e30 -->
<g id="edge6" class="edge">
<title>e29&#45;&gt;e30</title>
<path fill="none" stroke="#000000" d="M288.6522,-106C299.3472,-106 311.816,-106 323.3404,-106"/>
<polygon fill="#000000" stroke="#000000" points="323.5806,-109.5001 333.5805,-106 323.5805,-102.5001 323.5806,-109.5001"/>
<text text-anchor="middle" x="311.1" y="-109.8" font-family="Times,serif" font-size="14.00" fill="#000000">&#45;</text>
</g>
<!-- e28 -->
<g id="node8" class="node">
<title>e28</title>
<ellipse fill="none" stroke="#000000" cx="457.6" cy="-52" rx="27" ry="18"/>
<text text-anchor="middle" x="457.6" y="-48.3" font-family="Times,serif" font-size="14.00" fill="#000000">e28</text>
</g>
<!-- e30&#45;&gt;e28 -->
<g id="edge7" class="edge">
<title>e30&#45;&gt;e28</title>
<path fill="none" stroke="#000000" d="M381.6476,-94.2828C395.1213,-86.782 412.8098,-76.9348 427.7264,-68.6306"/>
<polygon fill="#000000" stroke="#000000" points="429.5586,-71.6165 436.5935,-63.6943 426.1537,-65.5004 429.5586,-71.6165"/>
<text text-anchor="middle" x="409.1" y="-83.8" font-family="Times,serif" font-size="14.00" fill="#000000">ε</text>
</g>
<!-- e27 -->
<g id="node7" class="node">
<title>e27</title>
<ellipse fill="none" stroke="#000000" cx="360.6" cy="-52" rx="27" ry="18"/>
<text text-anchor="middle" x="360.6" y="-48.3" font-family="Times,serif" font-size="14.00" fill="#000000">e27</text>
</g>
<!-- e26&#45;&gt;e27 -->
<g id="edge8" class="edge">
<title>e26&#45;&gt;e27</title>
<path fill="none" stroke="#000000" d="M288.6522,-52C299.3472,-52 311.816,-52 323.3404,-52"/>
<polygon fill="#000000" stroke="#000000" points="323.5806,-55.5001 333.5805,-52 323.5805,-48.5001 323.5806,-55.5001"/>
<text text-anchor="middle" x="311.1" y="-55.8" font-family="Times,serif" font-size="14.00" fill="#000000">+</text>
</g>
<!-- e27&#45;&gt;e28 -->
<g id="edge9" class="edge">
<title>e27&#45;&gt;e28</title>
<path fill="none" stroke="#000000" d="M387.6199,-52C397.7304,-52 409.4016,-52 420.2794,-52"/>
<polygon fill="#000000" stroke="#000000" points="420.3886,-55.5001 430.3886,-52 420.3885,-48.5001 420.3886,-55.5001"/>
<text text-anchor="middle" x="409.1" y="-55.8" font-family="Times,serif" font-size="14.00" fill="#000000">ε</text>
</g>
<!-- e28&#45;&gt;e1 -->
<g id="edge10" class="edge">
<title>e28&#45;&gt;e1</title>
<path fill="none" stroke="#000000" d="M482.3282,-44.3521C493.8436,-40.7906 507.7345,-36.4945 520.2482,-32.6243"/>
<polygon fill="#000000" stroke="#000000" points="521.3976,-35.9324 529.917,-29.6339 519.3293,-29.245 521.3976,-35.9324"/>
<text text-anchor="middle" x="506.1" y="-40.8" font-family="Times,serif" font-size="14.00" fill="#000000">ε</text>
</g>
<!-- e2 -->
<g id="node10" class="node">
<title>e2</title>
<ellipse fill="none" stroke="#000000" cx="651.6" cy="-22" rx="27" ry="18"/>
<text text-anchor="middle" x="651.6" y="-18.3" font-family="Times,serif" font-size="14.00" fill="#000000">e2</text>
</g>
<!-- e1&#45;&gt;e2 -->
<g id="edge11" class="edge">
<title>e1&#45;&gt;e2</title>
<path fill="none" stroke="#000000" d="M581.6199,-22C591.7304,-22 603.4016,-22 614.2794,-22"/>
<polygon fill="#000000" stroke="#000000" points="614.3886,-25.5001 624.3886,-22 614.3885,-18.5001 614.3886,-25.5001"/>
<text text-anchor="middle" x="603.1" y="-25.8" font-family="Times,serif" font-size="14.00" fill="#000000">ε</text>
</g>
<!-- e3 -->
<g id="node11" class="node">
<title>e3</title>
<ellipse fill="none" stroke="#000000" cx="751.6" cy="-22" rx="27" ry="18"/>
<text text-anchor="middle" x="751.6" y="-18.3" font-family="Times,serif" font-size="14.00" fill="#000000">e3</text>
</g>
<!-- e2&#45;&gt;e3 -->
<g id="edge12" class="edge">
<title>e2&#45;&gt;e3</title>
<path fill="none" stroke="#000000" d="M678.6614,-22C689.6669,-22 702.5653,-22 714.43,-22"/>
<polygon fill="#000000" stroke="#000000" points="714.517,-25.5001 724.5169,-22 714.5169,-18.5001 714.517,-25.5001"/>
<text text-anchor="middle" x="701.6" y="-25.8" font-family="Times,serif" font-size="14.00" fill="#000000">D</text>
</g>
<!-- e3&#45;&gt;e2 -->
<g id="edge13" class="edge">
<title>e3&#45;&gt;e2</title>
<path fill="none" stroke="#000000" d="M730.1889,-10.9048C722.9022,-7.6912 714.5792,-4.6155 706.6,-3 697.9889,-1.2566 688.8809,-2.8906 680.6075,-5.8083"/>
<polygon fill="#000000" stroke="#000000" points="679.2197,-2.595 671.3584,-9.6979 681.9333,-9.0477 679.2197,-2.595"/>
<text text-anchor="middle" x="701.6" y="-6.8" font-family="Times,serif" font-size="14.00" fill="#000000">ε</text>
</g>
<!-- e4 -->
<g id="node12" class="node">
<title>e4</title>
<ellipse fill="none" stroke="#000000" cx="848.6" cy="-22" rx="27" ry="18"/>
<text text-anchor="middle" x="848.6" y="-18.3" font-family="Times,serif" font-size="14.00" fill="#000000">e4</text>
</g>
<!-- e3&#45;&gt;e4 -->
<g id="edge14" class="edge">
<title>e3&#45;&gt;e4</title>
<path fill="none" stroke="#000000" d="M778.6199,-22C788.7304,-22 800.4016,-22 811.2794,-22"/>
<polygon fill="#000000" stroke="#000000" points="811.3886,-25.5001 821.3886,-22 811.3885,-18.5001 811.3886,-25.5001"/>
<text text-anchor="middle" x="800.1" y="-25.8" font-family="Times,serif" font-size="14.00" fill="#000000">ε</text>
</g>
<!-- e5 -->
<g id="node13" class="node">
<title>e5</title>
<ellipse fill="none" stroke="#000000" cx="942.6" cy="-22" rx="27" ry="18"/>
<text text-anchor="middle" x="942.6" y="-18.3" font-family="Times,serif" font-size="14.00" fill="#000000">e5</text>
</g>
<!-- e4&#45;&gt;e5 -->
<g id="edge15" class="edge">
<title>e4&#45;&gt;e5</title>
<path fill="none" stroke="#000000" d="M875.7887,-22C885.0446,-22 895.5552,-22 905.4551,-22"/>
<polygon fill="#000000" stroke="#000000" points="905.4724,-25.5001 915.4724,-22 905.4724,-18.5001 905.4724,-25.5001"/>
<text text-anchor="middle" x="895.6" y="-25.8" font-family="Times,serif" font-size="14.00" fill="#000000">.</text>
</g>
<!-- e6 -->
<g id="node14" class="node">
<title>e6</title>
<ellipse fill="none" stroke="#000000" cx="1039.6" cy="-22" rx="27" ry="18"/>
<text text-anchor="middle" x="1039.6" y="-18.3" font-family="Times,serif" font-size="14.00" fill="#000000">e6</text>
</g>
<!-- e5&#45;&gt;e6 -->
<g id="edge16" class="edge">
<title>e5&#45;&gt;e6</title>
<path fill="none" stroke="#000000" d="M969.6199,-22C979.7304,-22 991.4016,-22 1002.2794,-22"/>
<polygon fill="#000000" stroke="#000000" points="1002.3886,-25.5001 1012.3886,-22 1002.3885,-18.5001 1002.3886,-25.5001"/>
<text text-anchor="middle" x="991.1" y="-25.8" font-family="Times,serif" font-size="14.00" fill="#000000">ε</text>
</g>
<!-- e7 -->
<g id="node15" class="node">
<title>e7</title>
<ellipse fill="none" stroke="#000000" cx="1139.6" cy="-22" rx="27" ry="18"/>
<text text-anchor="middle" x="1139.6" y="-18.3" font-family="Times,serif" font-size="14.00" fill="#000000">e7</text>
</g>
<!-- e6&#45;&gt;e7 -->
<g id="edge17" class="edge">
<title>e6&#45;&gt;e7</title>
<path fill="none" stroke="#000000" d="M1066.6614,-22C1077.6669,-22 1090.5653,-22 1102.43,-22"/>
<polygon fill="#000000" stroke="#000000" points="1102.517,-25.5001 1112.5169,-22 1102.5169,-18.5001 1102.517,-25.5001"/>
<text text-anchor="middle" x="1089.6" y="-25.8" font-family="Times,serif" font-size="14.00" fill="#000000">D</text>
</g>
<!-- e7&#45;&gt;e6 -->
<g id="edge18" class="edge">
<title>e7&#45;&gt;e6</title>
<path fill="none" stroke="#000000" d="M1118.1889,-10.9048C1110.9022,-7.6912 1102.5792,-4.6155 1094.6,-3 1085.9889,-1.2566 1076.8809,-2.8906 1068.6075,-5.8083"/>
<polygon fill="#000000" stroke="#000000" points="1067.2197,-2.595 1059.3584,-9.6979 1069.9333,-9.0477 1067.2197,-2.595"/>
<text text-anchor="middle" x="1089.6" y="-6.8" font-family="Times,serif" font-size="14.00" fill="#000000">ε</text>
</g>
<!-- e8 -->
<g id="node16" class="node">
<title>e8</title>
<ellipse fill="none" stroke="#000000" cx="1236.6" cy="-22" rx="27" ry="18"/>
<text text-anchor="middle" x="1236.6" y="-18.3" font-family="Times,serif" font-size="14.00" fill="#000000">e8</text>
</g>
<!-- e7&#45;&gt;e8 -->
<g id="edge19" class="edge">
<title>e7&#45;&gt;e8</title>
<path fill="none" stroke="#000000" d="M1166.6199,-22C1176.7304,-22 1188.4016,-22 1199.2794,-22"/>
<polygon fill="#000000" stroke="#000000" points="1199.3886,-25.5001 1209.3886,-22 1199.3885,-18.5001 1199.3886,-25.5001"/>
<text text-anchor="middle" x="1188.1" y="-25.8" font-family="Times,serif" font-size="14.00" fill="#000000">ε</text>
</g>
<!-- e9 -->
<g id="node17" class="node">
<title>e9</title>
<ellipse fill="none" stroke="#000000" cx="1333.6" cy="-52" rx="27" ry="18"/>
<text text-anchor="middle" x="1333.6" y="-48.3" font-family="Times,serif" font-size="14.00" fill="#000000">e9</text>
</g>
<!-- e8&#45;&gt;e9 -->
<g id="edge20" class="edge">
<title>e8&#45;&gt;e9</title>
<path fill="none" stroke="#000000" d="M1261.3282,-29.6479C1272.8436,-33.2094 1286.7345,-37.5055 1299.2482,-41.3757"/>
<polygon fill="#000000" stroke="#000000" points="1298.3293,-44.755 1308.917,-44.3661 1300.3976,-38.0676 1298.3293,-44.755"/>
<text text-anchor="middle" x="1285.1" y="-40.8" font-family="Times,serif" font-size="14.00" fill="#000000">ε</text>
</g>
<!-- ef -->
<g id="node33" class="node">
<title>ef</title>
<ellipse fill="none" stroke="#000000" cx="2499.6" cy="-22" rx="18" ry="18"/>
<ellipse fill="none" stroke="#000000" cx="2499.6" cy="-22" rx="22" ry="22"/>
<text text-anchor="middle" x="2499.6" y="-18.3" font-family="Times,serif" font-size="14.00" fill="#000000">ef</text>
</g>
<!-- e8&#45;&gt;ef -->
<g id="edge21" class="edge">
<title>e8&#45;&gt;ef</title>
<path fill="none" stroke="#000000" d="M1261.9406,-15.4922C1281.4031,-11.0625 1309.0223,-6 1333.6,-6 1333.6,-6 1333.6,-6 2407.6,-6 2428.0638,-6 2450.7144,-9.8899 2468.4202,-13.8338"/>
<polygon fill="#000000" stroke="#000000" points="2467.6846,-17.2561 2478.2197,-16.133 2469.2836,-10.4412 2467.6846,-17.2561"/>
<text text-anchor="middle" x="1870.1" y="-9.8" font-family="Times,serif" font-size="14.00" fill="#000000">ε</text>
</g>
<!-- e23 -->
<g id="node18" class="node">
<title>e23</title>
<ellipse fill="none" stroke="#000000" cx="1430.6" cy="-106" rx="27" ry="18"/>
<text text-anchor="middle" x="1430.6" y="-102.3" font-family="Times,serif" font-size="14.00" fill="#000000">e23</text>
</g>
<!-- e9&#45;&gt;e23 -->
<g id="edge22" class="edge">
<title>e9&#45;&gt;e23</title>
<path fill="none" stroke="#000000" d="M1354.6476,-63.7172C1368.1213,-71.218 1385.8098,-81.0652 1400.7264,-89.3694"/>
<polygon fill="#000000" stroke="#000000" points="1399.1537,-92.4996 1409.5935,-94.3057 1402.5586,-86.3835 1399.1537,-92.4996"/>
<text text-anchor="middle" x="1382.1" y="-83.8" font-family="Times,serif" font-size="14.00" fill="#000000">ε</text>
</g>
<!-- e10 -->
<g id="node20" class="node">
<title>e10</title>
<ellipse fill="none" stroke="#000000" cx="1430.6" cy="-52" rx="27" ry="18"/>
<text text-anchor="middle" x="1430.6" y="-48.3" font-family="Times,serif" font-size="14.00" fill="#000000">e10</text>
</g>
<!-- e9&#45;&gt;e10 -->
<g id="edge23" class="edge">
<title>e9&#45;&gt;e10</title>
<path fill="none" stroke="#000000" d="M1360.6199,-52C1370.7304,-52 1382.4016,-52 1393.2794,-52"/>
<polygon fill="#000000" stroke="#000000" points="1393.3886,-55.5001 1403.3886,-52 1393.3885,-48.5001 1393.3886,-55.5001"/>
<text text-anchor="middle" x="1382.1" y="-55.8" font-family="Times,serif" font-size="14.00" fill="#000000">ε</text>
</g>
<!-- e24 -->
<g id="node19" class="node">
<title>e24</title>
<ellipse fill="none" stroke="#000000" cx="1529.6" cy="-106" rx="27" ry="18"/>
<text text-anchor="middle" x="1529.6" y="-102.3" font-family="Times,serif" font-size="14.00" fill="#000000">e24</text>
</g>
<!-- e23&#45;&gt;e24 -->
<g id="edge24" class="edge">
<title>e23&#45;&gt;e24</title>
<path fill="none" stroke="#000000" d="M1457.6522,-106C1468.3472,-106 1480.816,-106 1492.3404,-106"/>
<polygon fill="#000000" stroke="#000000" points="1492.5806,-109.5001 1502.5805,-106 1492.5805,-102.5001 1492.5806,-109.5001"/>
<text text-anchor="middle" x="1480.1" y="-109.8" font-family="Times,serif" font-size="14.00" fill="#000000">e</text>
</g>
<!-- e12 -->
<g id="node22" class="node">
<title>e12</title>
<ellipse fill="none" stroke="#000000" cx="1626.6" cy="-77" rx="27" ry="18"/>
<text text-anchor="middle" x="1626.6" y="-73.3" font-family="Times,serif" font-size="14.00" fill="#000000">e12</text>
</g>
<!-- e24&#45;&gt;e12 -->
<g id="edge25" class="edge">
<title>e24&#45;&gt;e12</title>
<path fill="none" stroke="#000000" d="M1554.3282,-98.607C1565.8436,-95.1643 1579.7345,-91.0113 1592.2482,-87.2701"/>
<polygon fill="#000000" stroke="#000000" points="1593.3386,-90.5973 1601.917,-84.3795 1591.3334,-83.8906 1593.3386,-90.5973"/>
<text text-anchor="middle" x="1578.1" y="-95.8" font-family="Times,serif" font-size="14.00" fill="#000000">ε</text>
</g>
<!-- e11 -->
<g id="node21" class="node">
<title>e11</title>
<ellipse fill="none" stroke="#000000" cx="1529.6" cy="-52" rx="27" ry="18"/>
<text text-anchor="middle" x="1529.6" y="-48.3" font-family="Times,serif" font-size="14.00" fill="#000000">e11</text>
</g>
<!-- e10&#45;&gt;e11 -->
<g id="edge26" class="edge">
<title>e10&#45;&gt;e11</title>
<path fill="none" stroke="#000000" d="M1457.6522,-52C1468.3472,-52 1480.816,-52 1492.3404,-52"/>
<polygon fill="#000000" stroke="#000000" points="1492.5806,-55.5001 1502.5805,-52 1492.5805,-48.5001 1492.5806,-55.5001"/>
<text text-anchor="middle" x="1480.1" y="-55.8" font-family="Times,serif" font-size="14.00" fill="#000000">E</text>
</g>
<!-- e11&#45;&gt;e12 -->
<g id="edge27" class="edge">
<title>e11&#45;&gt;e12</title>
<path fill="none" stroke="#000000" d="M1555.0108,-58.2684C1563.4757,-60.379 1572.9505,-62.7657 1581.6,-65 1584.8097,-65.8291 1588.1455,-66.7005 1591.4848,-67.5792"/>
<polygon fill="#000000" stroke="#000000" points="1590.8272,-71.0257 1601.3901,-70.2031 1592.6197,-64.2591 1590.8272,-71.0257"/>
<text text-anchor="middle" x="1578.1" y="-68.8" font-family="Times,serif" font-size="14.00" fill="#000000">ε</text>
</g>
<!-- e17 -->
<g id="node23" class="node">
<title>e17</title>
<ellipse fill="none" stroke="#000000" cx="1723.6" cy="-94" rx="27" ry="18"/>
<text text-anchor="middle" x="1723.6" y="-90.3" font-family="Times,serif" font-size="14.00" fill="#000000">e17</text>
</g>
<!-- e12&#45;&gt;e17 -->
<g id="edge28" class="edge">
<title>e12&#45;&gt;e17</title>
<path fill="none" stroke="#000000" d="M1652.8496,-81.6004C1663.4171,-83.4525 1675.7838,-85.6198 1687.1961,-87.6199"/>
<polygon fill="#000000" stroke="#000000" points="1686.8753,-91.117 1697.3294,-89.3959 1688.0838,-84.2221 1686.8753,-91.117"/>
<text text-anchor="middle" x="1675.1" y="-89.8" font-family="Times,serif" font-size="14.00" fill="#000000">ε</text>
</g>
<!-- e13 -->
<g id="node29" class="node">
<title>e13</title>
<ellipse fill="none" stroke="#000000" cx="2113.6" cy="-64" rx="27" ry="18"/>
<text text-anchor="middle" x="2113.6" y="-60.3" font-family="Times,serif" font-size="14.00" fill="#000000">e13</text>
</g>
<!-- e12&#45;&gt;e13 -->
<g id="edge29" class="edge">
<title>e12&#45;&gt;e13</title>
<path fill="none" stroke="#000000" d="M1648.7736,-66.3661C1668.0803,-58.0896 1697.0591,-48 1723.6,-48 1723.6,-48 1723.6,-48 2016.6,-48 2037.2414,-48 2060.0281,-51.5708 2078.3266,-55.3386"/>
<polygon fill="#000000" stroke="#000000" points="2077.7448,-58.7937 2088.2594,-57.4922 2079.2281,-51.9526 2077.7448,-58.7937"/>
<text text-anchor="middle" x="1870.1" y="-51.8" font-family="Times,serif" font-size="14.00" fill="#000000">ε</text>
</g>
<!-- e21 -->
<g id="node24" class="node">
<title>e21</title>
<ellipse fill="none" stroke="#000000" cx="1820.6" cy="-148" rx="27" ry="18"/>
<text text-anchor="middle" x="1820.6" y="-144.3" font-family="Times,serif" font-size="14.00" fill="#000000">e21</text>
</g>
<!-- e17&#45;&gt;e21 -->
<g id="edge30" class="edge">
<title>e17&#45;&gt;e21</title>
<path fill="none" stroke="#000000" d="M1744.6476,-105.7172C1758.1213,-113.218 1775.8098,-123.0652 1790.7264,-131.3694"/>
<polygon fill="#000000" stroke="#000000" points="1789.1537,-134.4996 1799.5935,-136.3057 1792.5586,-128.3835 1789.1537,-134.4996"/>
<text text-anchor="middle" x="1772.1" y="-125.8" font-family="Times,serif" font-size="14.00" fill="#000000">ε</text>
</g>
<!-- e18 -->
<g id="node26" class="node">
<title>e18</title>
<ellipse fill="none" stroke="#000000" cx="1820.6" cy="-94" rx="27" ry="18"/>
<text text-anchor="middle" x="1820.6" y="-90.3" font-family="Times,serif" font-size="14.00" fill="#000000">e18</text>
</g>
<!-- e17&#45;&gt;e18 -->
<g id="edge31" class="edge">
<title>e17&#45;&gt;e18</title>
<path fill="none" stroke="#000000" d="M1750.6199,-94C1760.7304,-94 1772.4016,-94 1783.2794,-94"/>
<polygon fill="#000000" stroke="#000000" points="1783.3886,-97.5001 1793.3886,-94 1783.3885,-90.5001 1783.3886,-97.5001"/>
<text text-anchor="middle" x="1772.1" y="-97.8" font-family="Times,serif" font-size="14.00" fill="#000000">ε</text>
</g>
<!-- e22 -->
<g id="node25" class="node">
<title>e22</title>
<ellipse fill="none" stroke="#000000" cx="1919.6" cy="-148" rx="27" ry="18"/>
<text text-anchor="middle" x="1919.6" y="-144.3" font-family="Times,serif" font-size="14.00" fill="#000000">e22</text>
</g>
<!-- e21&#45;&gt;e22 -->
<g id="edge32" class="edge">
<title>e21&#45;&gt;e22</title>
<path fill="none" stroke="#000000" d="M1847.6522,-148C1858.3472,-148 1870.816,-148 1882.3404,-148"/>
<polygon fill="#000000" stroke="#000000" points="1882.5806,-151.5001 1892.5805,-148 1882.5805,-144.5001 1882.5806,-151.5001"/>
<text text-anchor="middle" x="1870.1" y="-151.8" font-family="Times,serif" font-size="14.00" fill="#000000">&#45;</text>
</g>
<!-- e20 -->
<g id="node28" class="node">
<title>e20</title>
<ellipse fill="none" stroke="#000000" cx="2016.6" cy="-94" rx="27" ry="18"/>
<text text-anchor="middle" x="2016.6" y="-90.3" font-family="Times,serif" font-size="14.00" fill="#000000">e20</text>
</g>
<!-- e22&#45;&gt;e20 -->
<g id="edge33" class="edge">
<title>e22&#45;&gt;e20</title>
<path fill="none" stroke="#000000" d="M1940.6476,-136.2828C1954.1213,-128.782 1971.8098,-118.9348 1986.7264,-110.6306"/>
<polygon fill="#000000" stroke="#000000" points="1988.5586,-113.6165 1995.5935,-105.6943 1985.1537,-107.5004 1988.5586,-113.6165"/>
<text text-anchor="middle" x="1968.1" y="-125.8" font-family="Times,serif" font-size="14.00" fill="#000000">ε</text>
</g>
<!-- e19 -->
<g id="node27" class="node">
<title>e19</title>
<ellipse fill="none" stroke="#000000" cx="1919.6" cy="-94" rx="27" ry="18"/>
<text text-anchor="middle" x="1919.6" y="-90.3" font-family="Times,serif" font-size="14.00" fill="#000000">e19</text>
</g>
<!-- e18&#45;&gt;e19 -->
<g id="edge34" class="edge">
<title>e18&#45;&gt;e19</title>
<path fill="none" stroke="#000000" d="M1847.6522,-94C1858.3472,-94 1870.816,-94 1882.3404,-94"/>
<polygon fill="#000000" stroke="#000000" points="1882.5806,-97.5001 1892.5805,-94 1882.5805,-90.5001 1882.5806,-97.5001"/>
<text text-anchor="middle" x="1870.1" y="-97.8" font-family="Times,serif" font-size="14.00" fill="#000000">+</text>
</g>
<!-- e19&#45;&gt;e20 -->
<g id="edge35" class="edge">
<title>e19&#45;&gt;e20</title>
<path fill="none" stroke="#000000" d="M1946.6199,-94C1956.7304,-94 1968.4016,-94 1979.2794,-94"/>
<polygon fill="#000000" stroke="#000000" points="1979.3886,-97.5001 1989.3886,-94 1979.3885,-90.5001 1979.3886,-97.5001"/>
<text text-anchor="middle" x="1968.1" y="-97.8" font-family="Times,serif" font-size="14.00" fill="#000000">ε</text>
</g>
<!-- e20&#45;&gt;e13 -->
<g id="edge36" class="edge">
<title>e20&#45;&gt;e13</title>
<path fill="none" stroke="#000000" d="M2041.3282,-86.3521C2052.8436,-82.7906 2066.7345,-78.4945 2079.2482,-74.6243"/>
<polygon fill="#000000" stroke="#000000" points="2080.3976,-77.9324 2088.917,-71.6339 2078.3293,-71.245 2080.3976,-77.9324"/>
<text text-anchor="middle" x="2065.1" y="-82.8" font-family="Times,serif" font-size="14.00" fill="#000000">ε</text>
</g>
<!-- e14 -->
<g id="node30" class="node">
<title>e14</title>
<ellipse fill="none" stroke="#000000" cx="2210.6" cy="-64" rx="27" ry="18"/>
<text text-anchor="middle" x="2210.6" y="-60.3" font-family="Times,serif" font-size="14.00" fill="#000000">e14</text>
</g>
<!-- e13&#45;&gt;e14 -->
<g id="edge37" class="edge">
<title>e13&#45;&gt;e14</title>
<path fill="none" stroke="#000000" d="M2140.6199,-64C2150.7304,-64 2162.4016,-64 2173.2794,-64"/>
<polygon fill="#000000" stroke="#000000" points="2173.3886,-67.5001 2183.3886,-64 2173.3885,-60.5001 2173.3886,-67.5001"/>
<text text-anchor="middle" x="2162.1" y="-67.8" font-family="Times,serif" font-size="14.00" fill="#000000">ε</text>
</g>
<!-- e15 -->
<g id="node31" class="node">
<title>e15</title>
<ellipse fill="none" stroke="#000000" cx="2310.6" cy="-52" rx="27" ry="18"/>
<text text-anchor="middle" x="2310.6" y="-48.3" font-family="Times,serif" font-size="14.00" fill="#000000">e15</text>
</g>
<!-- e14&#45;&gt;e15 -->
<g id="edge38" class="edge">
<title>e14&#45;&gt;e15</title>
<path fill="none" stroke="#000000" d="M2237.8049,-63.2868C2246.6896,-62.8485 2256.5873,-62.1411 2265.6,-61 2268.6628,-60.6122 2271.8295,-60.1356 2274.9984,-59.606"/>
<polygon fill="#000000" stroke="#000000" points="2275.7955,-63.0183 2285.0032,-57.7774 2274.5369,-56.1324 2275.7955,-63.0183"/>
<text text-anchor="middle" x="2260.6" y="-64.8" font-family="Times,serif" font-size="14.00" fill="#000000">D</text>
</g>
<!-- e15&#45;&gt;e14 -->
<g id="edge39" class="edge">
<title>e15&#45;&gt;e14</title>
<path fill="none" stroke="#000000" d="M2286.6751,-43.4017C2276.9855,-41.0222 2265.7173,-39.6593 2255.6,-42 2250.4371,-43.1945 2245.1824,-45.0669 2240.1721,-47.2267"/>
<polygon fill="#000000" stroke="#000000" points="2238.4489,-44.1707 2230.9267,-51.6318 2241.4599,-50.4901 2238.4489,-44.1707"/>
<text text-anchor="middle" x="2260.6" y="-45.8" font-family="Times,serif" font-size="14.00" fill="#000000">ε</text>
</g>
<!-- e16 -->
<g id="node32" class="node">
<title>e16</title>
<ellipse fill="none" stroke="#000000" cx="2407.6" cy="-52" rx="27" ry="18"/>
<text text-anchor="middle" x="2407.6" y="-48.3" font-family="Times,serif" font-size="14.00" fill="#000000">e16</text>
</g>
<!-- e15&#45;&gt;e16 -->
<g id="edge40" class="edge">
<title>e15&#45;&gt;e16</title>
<path fill="none" stroke="#000000" d="M2337.6199,-52C2347.7304,-52 2359.4016,-52 2370.2794,-52"/>
<polygon fill="#000000" stroke="#000000" points="2370.3886,-55.5001 2380.3886,-52 2370.3885,-48.5001 2370.3886,-55.5001"/>
<text text-anchor="middle" x="2359.1" y="-55.8" font-family="Times,serif" font-size="14.00" fill="#000000">ε</text>
</g>
<!-- e16&#45;&gt;ef -->
<g id="edge41" class="edge">
<title>e16&#45;&gt;ef</title>
<path fill="none" stroke="#000000" d="M2432.2543,-43.9606C2443.5648,-40.2724 2457.0874,-35.8628 2469.0377,-31.966"/>
<polygon fill="#000000" stroke="#000000" points="2470.2009,-35.2681 2478.6231,-28.8403 2468.0307,-28.613 2470.2009,-35.2681"/>
<text text-anchor="middle" x="2456.1" y="-40.8" font-family="Times,serif" font-size="14.00" fill="#000000">ε</text>
</g>
</g>
</svg>
