<?xml version="1.0" encoding="UTF-8" standalone="no"?>
<!DOCTYPE svg PUBLIC "-//W3C//DTD SVG 1.1//EN"
 "http://www.w3.org/Graphics/SVG/1.1/DTD/svg11.dtd">
<!-- Generated by graphviz version 2.40.1 (20161225.0304)
 -->
<!-- Title: %3 Pages: 1 -->
<svg width="252pt" height="566pt"
 viewBox="0.00 0.00 251.99 565.70" xmlns="http://www.w3.org/2000/svg" xmlns:xlink="http://www.w3.org/1999/xlink">
<g id="graph0" class="graph" transform="scale(1 1) rotate(0) translate(4 561.6967)">
<title>%3</title>
<polygon fill="#ffffff" stroke="transparent" points="-4,4 -4,-561.6967 247.9933,-561.6967 247.9933,4 -4,4"/>
<!-- ini -->
<g id="node1" class="node">
<title>ini</title>
<ellipse fill="#000000" stroke="#000000" cx="1.8" cy="-278.8483" rx="1.8" ry="1.8"/>
</g>
<!-- s0 -->
<g id="node2" class="node">
<title>s0</title>
<ellipse fill="none" stroke="#000000" cx="63.4483" cy="-278.8483" rx="18.724" ry="18.724"/>
<ellipse fill="none" stroke="#000000" cx="63.4483" cy="-278.8483" rx="22.6977" ry="22.6977"/>
<text text-anchor="middle" x="63.4483" y="-275.1483" font-family="Times,serif" font-size="14.00" fill="#000000">s0</text>
</g>
<!-- ini&#45;&gt;s0 -->
<g id="edge1" class="edge">
<title>ini&#45;&gt;s0</title>
<path fill="none" stroke="#000000" d="M3.8512,-278.8483C8.234,-278.8483 19.0303,-278.8483 30.2488,-278.8483"/>
<polygon fill="#000000" stroke="#000000" points="30.4983,-282.3484 40.4982,-278.8483 30.4982,-275.3484 30.4983,-282.3484"/>
</g>
<!-- s1 -->
<g id="node3" class="node">
<title>s1</title>
<ellipse fill="none" stroke="#000000" cx="221.145" cy="-534.8483" rx="18.724" ry="18.724"/>
<ellipse fill="none" stroke="#000000" cx="221.145" cy="-534.8483" rx="22.6977" ry="22.6977"/>
<text text-anchor="middle" x="221.145" y="-531.1483" font-family="Times,serif" font-size="14.00" fill="#000000">s1</text>
</g>
<!-- s0&#45;&gt;s1 -->
<g id="edge2" class="edge">
<title>s0&#45;&gt;s1</title>
<path fill="none" stroke="#000000" d="M65.6673,-301.8901C70.5079,-348.0149 83.2956,-449.6067 104.2967,-476.8483 125.1407,-503.8863 161.9519,-519.1926 188.699,-527.2085"/>
<polygon fill="#000000" stroke="#000000" points="187.8292,-530.5996 198.403,-529.933 189.7213,-523.8602 187.8292,-530.5996"/>
<text text-anchor="middle" x="142.2967" y="-527.6483" font-family="Times,serif" font-size="14.00" fill="#000000">|</text>
</g>
<!-- s2 -->
<g id="node4" class="node">
<title>s2</title>
<ellipse fill="none" stroke="#000000" cx="221.145" cy="-470.8483" rx="18.724" ry="18.724"/>
<ellipse fill="none" stroke="#000000" cx="221.145" cy="-470.8483" rx="22.6977" ry="22.6977"/>
<text text-anchor="middle" x="221.145" y="-467.1483" font-family="Times,serif" font-size="14.00" fill="#000000">s2</text>
</g>
<!-- s0&#45;&gt;s2 -->
<g id="edge3" class="edge">
<title>s0&#45;&gt;s2</title>
<path fill="none" stroke="#000000" d="M65.2707,-301.7481C68.6169,-330.0763 78.026,-378.4022 104.2967,-409.8483 126.413,-436.3217 162.9982,-452.7686 189.3443,-461.8178"/>
<polygon fill="#000000" stroke="#000000" points="188.2964,-465.1574 198.8888,-464.9292 190.4661,-458.5021 188.2964,-465.1574"/>
<text text-anchor="middle" x="142.2967" y="-461.6483" font-family="Times,serif" font-size="14.00" fill="#000000">°</text>
</g>
<!-- s3 -->
<g id="node5" class="node">
<title>s3</title>
<ellipse fill="none" stroke="#000000" cx="221.145" cy="-406.8483" rx="18.724" ry="18.724"/>
<ellipse fill="none" stroke="#000000" cx="221.145" cy="-406.8483" rx="22.6977" ry="22.6977"/>
<text text-anchor="middle" x="221.145" y="-403.1483" font-family="Times,serif" font-size="14.00" fill="#000000">s3</text>
</g>
<!-- s0&#45;&gt;s3 -->
<g id="edge4" class="edge">
<title>s0&#45;&gt;s3</title>
<path fill="none" stroke="#000000" d="M72.5817,-299.933C79.6152,-314.2692 90.4697,-332.91 104.2967,-345.8483 129.079,-369.038 164.3654,-385.8321 189.6669,-395.8577"/>
<polygon fill="#000000" stroke="#000000" points="188.5765,-399.1879 199.167,-399.4916 191.0774,-392.6499 188.5765,-399.1879"/>
<text text-anchor="middle" x="142.2967" y="-394.6483" font-family="Times,serif" font-size="14.00" fill="#000000">⁺</text>
</g>
<!-- s4 -->
<g id="node6" class="node">
<title>s4</title>
<ellipse fill="none" stroke="#000000" cx="221.145" cy="-342.8483" rx="18.724" ry="18.724"/>
<ellipse fill="none" stroke="#000000" cx="221.145" cy="-342.8483" rx="22.6977" ry="22.6977"/>
<text text-anchor="middle" x="221.145" y="-339.1483" font-family="Times,serif" font-size="14.00" fill="#000000">s4</text>
</g>
<!-- s0&#45;&gt;s4 -->
<g id="edge5" class="edge">
<title>s0&#45;&gt;s4</title>
<path fill="none" stroke="#000000" d="M84.107,-288.7884C90.5348,-291.7916 97.6732,-295.0364 104.2967,-297.8483 133.0108,-310.0389 166.249,-322.7023 189.9169,-331.478"/>
<polygon fill="#000000" stroke="#000000" points="188.8399,-334.8112 199.4333,-334.9882 191.2625,-328.2437 188.8399,-334.8112"/>
<text text-anchor="middle" x="142.2967" y="-330.6483" font-family="Times,serif" font-size="14.00" fill="#000000">*</text>
</g>
<!-- s5 -->
<g id="node7" class="node">
<title>s5</title>
<ellipse fill="none" stroke="#000000" cx="221.145" cy="-278.8483" rx="18.724" ry="18.724"/>
<ellipse fill="none" stroke="#000000" cx="221.145" cy="-278.8483" rx="22.6977" ry="22.6977"/>
<text text-anchor="middle" x="221.145" y="-275.1483" font-family="Times,serif" font-size="14.00" fill="#000000">s5</text>
</g>
<!-- s0&#45;&gt;s5 -->
<g id="edge6" class="edge">
<title>s0&#45;&gt;s5</title>
<path fill="none" stroke="#000000" d="M86.3788,-278.8483C113.1236,-278.8483 157.5525,-278.8483 188.0374,-278.8483"/>
<polygon fill="#000000" stroke="#000000" points="188.1869,-282.3484 198.1869,-278.8483 188.1868,-275.3484 188.1869,-282.3484"/>
<text text-anchor="middle" x="142.2967" y="-282.6483" font-family="Times,serif" font-size="14.00" fill="#000000">?</text>
</g>
<!-- s6 -->
<g id="node8" class="node">
<title>s6</title>
<ellipse fill="none" stroke="#000000" cx="221.145" cy="-214.8483" rx="18.724" ry="18.724"/>
<ellipse fill="none" stroke="#000000" cx="221.145" cy="-214.8483" rx="22.6977" ry="22.6977"/>
<text text-anchor="middle" x="221.145" y="-211.1483" font-family="Times,serif" font-size="14.00" fill="#000000">s6</text>
</g>
<!-- s0&#45;&gt;s6 -->
<g id="edge7" class="edge">
<title>s0&#45;&gt;s6</title>
<path fill="none" stroke="#000000" d="M84.107,-268.9083C90.5348,-265.905 97.6732,-262.6603 104.2967,-259.8483 133.0108,-247.6577 166.249,-234.9944 189.9169,-226.2187"/>
<polygon fill="#000000" stroke="#000000" points="191.2625,-229.4529 199.4333,-222.7084 188.8399,-222.8855 191.2625,-229.4529"/>
<text text-anchor="middle" x="142.2967" y="-263.6483" font-family="Times,serif" font-size="14.00" fill="#000000">!,|,°,⁺,*,?,\,(,)</text>
</g>
<!-- s7 -->
<g id="node9" class="node">
<title>s7</title>
<ellipse fill="none" stroke="#000000" cx="221.145" cy="-150.8483" rx="18.724" ry="18.724"/>
<ellipse fill="none" stroke="#000000" cx="221.145" cy="-150.8483" rx="22.6977" ry="22.6977"/>
<text text-anchor="middle" x="221.145" y="-147.1483" font-family="Times,serif" font-size="14.00" fill="#000000">s7</text>
</g>
<!-- s0&#45;&gt;s7 -->
<g id="edge8" class="edge">
<title>s0&#45;&gt;s7</title>
<path fill="none" stroke="#000000" d="M72.3362,-257.7292C79.3205,-243.1226 90.2171,-224.0205 104.2967,-210.8483 128.9947,-187.7419 164.2945,-171.2702 189.6222,-161.5011"/>
<polygon fill="#000000" stroke="#000000" points="190.9796,-164.7306 199.1331,-157.9652 188.5403,-158.1693 190.9796,-164.7306"/>
<text text-anchor="middle" x="142.2967" y="-214.6483" font-family="Times,serif" font-size="14.00" fill="#000000">\</text>
</g>
<!-- s8 -->
<g id="node10" class="node">
<title>s8</title>
<ellipse fill="none" stroke="#000000" cx="221.145" cy="-86.8483" rx="18.724" ry="18.724"/>
<ellipse fill="none" stroke="#000000" cx="221.145" cy="-86.8483" rx="22.6977" ry="22.6977"/>
<text text-anchor="middle" x="221.145" y="-83.1483" font-family="Times,serif" font-size="14.00" fill="#000000">s8</text>
</g>
<!-- s0&#45;&gt;s8 -->
<g id="edge9" class="edge">
<title>s0&#45;&gt;s8</title>
<path fill="none" stroke="#000000" d="M65.1882,-255.7472C68.4493,-227.1755 77.7705,-178.4525 104.2967,-146.8483 126.3964,-120.518 162.9845,-104.3924 189.3358,-95.5833"/>
<polygon fill="#000000" stroke="#000000" points="190.4062,-98.9157 198.8825,-92.5593 188.2924,-92.2425 190.4062,-98.9157"/>
<text text-anchor="middle" x="142.2967" y="-150.6483" font-family="Times,serif" font-size="14.00" fill="#000000">(</text>
</g>
<!-- s9 -->
<g id="node11" class="node">
<title>s9</title>
<ellipse fill="none" stroke="#000000" cx="221.145" cy="-22.8483" rx="18.724" ry="18.724"/>
<ellipse fill="none" stroke="#000000" cx="221.145" cy="-22.8483" rx="22.6977" ry="22.6977"/>
<text text-anchor="middle" x="221.145" y="-19.1483" font-family="Times,serif" font-size="14.00" fill="#000000">s9</text>
</g>
<!-- s0&#45;&gt;s9 -->
<g id="edge10" class="edge">
<title>s0&#45;&gt;s9</title>
<path fill="none" stroke="#000000" d="M65.6007,-256.0328C70.3577,-209.8223 83.0593,-107.2293 104.2967,-79.8483 125.1494,-52.9632 161.9591,-37.9765 188.7034,-30.1975"/>
<polygon fill="#000000" stroke="#000000" points="189.675,-33.5605 198.4064,-27.5593 187.8384,-26.8057 189.675,-33.5605"/>
<text text-anchor="middle" x="142.2967" y="-83.6483" font-family="Times,serif" font-size="14.00" fill="#000000">)</text>
</g>
</g>
</svg>
