<?xml version="1.0" encoding="UTF-8" standalone="no"?>
<!DOCTYPE svg PUBLIC "-//W3C//DTD SVG 1.1//EN"
 "http://www.w3.org/Graphics/SVG/1.1/DTD/svg11.dtd">
<!-- Generated by graphviz version 2.40.1 (20161225.0304)
 -->
<!-- Title: %3 Pages: 1 -->
<svg width="385pt" height="139pt"
 viewBox="0.00 0.00 385.30 139.40" xmlns="http://www.w3.org/2000/svg" xmlns:xlink="http://www.w3.org/1999/xlink">
<g id="graph0" class="graph" transform="scale(1 1) rotate(0) translate(4 135.396)">
<title>%3</title>
<polygon fill="#ffffff" stroke="transparent" points="-4,4 -4,-135.396 381.2967,-135.396 381.2967,4 -4,4"/>
<!-- ini -->
<g id="node1" class="node">
<title>ini</title>
<ellipse fill="#000000" stroke="#000000" cx="1.8" cy="-19.396" rx="1.8" ry="1.8"/>
</g>
<!-- s0 -->
<g id="node2" class="node">
<title>s0</title>
<ellipse fill="none" stroke="#000000" cx="67.6" cy="-19.396" rx="27" ry="18"/>
<text text-anchor="middle" x="67.6" y="-15.696" font-family="Times,serif" font-size="14.00" fill="#000000">s0</text>
</g>
<!-- ini&#45;&gt;s0 -->
<g id="edge1" class="edge">
<title>ini&#45;&gt;s0</title>
<path fill="none" stroke="#000000" d="M3.6983,-19.396C7.9356,-19.396 18.702,-19.396 30.2151,-19.396"/>
<polygon fill="#000000" stroke="#000000" points="30.3795,-22.8961 40.3795,-19.396 30.3794,-15.8961 30.3795,-22.8961"/>
</g>
<!-- s1 -->
<g id="node3" class="node">
<title>s1</title>
<ellipse fill="none" stroke="#000000" cx="164.6" cy="-80.396" rx="27" ry="18"/>
<text text-anchor="middle" x="164.6" y="-76.696" font-family="Times,serif" font-size="14.00" fill="#000000">s1</text>
</g>
<!-- s0&#45;&gt;s1 -->
<g id="edge2" class="edge">
<title>s0&#45;&gt;s1</title>
<path fill="none" stroke="#000000" d="M87.6985,-32.0353C101.7076,-40.8451 120.598,-52.7247 136.1502,-62.5049"/>
<polygon fill="#000000" stroke="#000000" points="134.5307,-65.621 144.8592,-67.9817 138.2572,-59.6953 134.5307,-65.621"/>
<text text-anchor="middle" x="116.1" y="-55.196" font-family="Times,serif" font-size="14.00" fill="#000000">a</text>
</g>
<!-- s2 -->
<g id="node4" class="node">
<title>s2</title>
<ellipse fill="none" stroke="#000000" cx="261.6" cy="-33.396" rx="27" ry="18"/>
<text text-anchor="middle" x="261.6" y="-29.696" font-family="Times,serif" font-size="14.00" fill="#000000">s2</text>
</g>
<!-- s0&#45;&gt;s2 -->
<g id="edge3" class="edge">
<title>s0&#45;&gt;s2</title>
<path fill="none" stroke="#000000" d="M94.5749,-21.3427C128.3587,-23.7807 186.4088,-27.9699 224.3966,-30.7112"/>
<polygon fill="#000000" stroke="#000000" points="224.3162,-34.2145 234.5422,-31.4434 224.8201,-27.2326 224.3162,-34.2145"/>
<text text-anchor="middle" x="164.6" y="-31.196" font-family="Times,serif" font-size="14.00" fill="#000000">b</text>
</g>
<!-- s3 -->
<g id="node5" class="node">
<title>s3</title>
<ellipse fill="none" stroke="#000000" cx="354.4483" cy="-33.396" rx="18.724" ry="18.724"/>
<ellipse fill="none" stroke="#000000" cx="354.4483" cy="-33.396" rx="22.6977" ry="22.6977"/>
<text text-anchor="middle" x="354.4483" y="-29.696" font-family="Times,serif" font-size="14.00" fill="#000000">s3</text>
</g>
<!-- s0&#45;&gt;s3 -->
<g id="edge4" class="edge">
<title>s0&#45;&gt;s3</title>
<path fill="none" stroke="#000000" d="M93.407,-13.7118C134.9464,-5.4902 219.0265,7.3138 288.6,-6.396 300.8826,-8.8164 313.7575,-13.5503 324.8318,-18.3872"/>
<polygon fill="#000000" stroke="#000000" points="323.4912,-21.6229 334.0401,-22.6088 326.4085,-15.2597 323.4912,-21.6229"/>
<text text-anchor="middle" x="213.1" y="-4.196" font-family="Times,serif" font-size="14.00" fill="#000000">c</text>
</g>
<!-- s1&#45;&gt;s1 -->
<g id="edge5" class="edge">
<title>s1&#45;&gt;s1</title>
<path fill="none" stroke="#000000" d="M156.0307,-97.8059C154.4311,-107.4839 157.2875,-116.396 164.6,-116.396 169.1703,-116.396 172,-112.9147 173.089,-107.941"/>
<polygon fill="#000000" stroke="#000000" points="176.5899,-107.8334 173.1693,-97.8059 169.5901,-107.7778 176.5899,-107.8334"/>
<text text-anchor="middle" x="164.6" y="-120.196" font-family="Times,serif" font-size="14.00" fill="#000000">a</text>
</g>
<!-- s1&#45;&gt;s2 -->
<g id="edge6" class="edge">
<title>s1&#45;&gt;s2</title>
<path fill="none" stroke="#000000" d="M183.9035,-67.8104C191.7129,-62.9865 200.9199,-57.6297 209.6,-53.396 215.4192,-50.5577 221.7505,-47.8363 227.9282,-45.3648"/>
<polygon fill="#000000" stroke="#000000" points="229.3436,-48.5702 237.4138,-41.7056 226.8242,-42.0393 229.3436,-48.5702"/>
<text text-anchor="middle" x="213.1" y="-57.196" font-family="Times,serif" font-size="14.00" fill="#000000">b</text>
</g>
<!-- s1&#45;&gt;s3 -->
<g id="edge7" class="edge">
<title>s1&#45;&gt;s3</title>
<path fill="none" stroke="#000000" d="M188.3075,-89.1932C213.9173,-97.2751 255.4966,-106.2158 288.6,-93.396 306.2763,-86.5506 322.1204,-72.5072 333.835,-59.727"/>
<polygon fill="#000000" stroke="#000000" points="336.6338,-61.843 340.5748,-52.0084 331.3611,-57.2388 336.6338,-61.843"/>
<text text-anchor="middle" x="261.6" y="-103.196" font-family="Times,serif" font-size="14.00" fill="#000000">c</text>
</g>
<!-- s2&#45;&gt;s1 -->
<g id="edge8" class="edge">
<title>s2&#45;&gt;s1</title>
<path fill="none" stroke="#000000" d="M246.0746,-48.2157C237.8837,-55.2859 227.3257,-63.2951 216.6,-68.396 211.6321,-70.7587 206.1714,-72.6709 200.7137,-74.2145"/>
<polygon fill="#000000" stroke="#000000" points="199.8698,-70.8177 191.0003,-76.6126 201.5477,-77.6136 199.8698,-70.8177"/>
<text text-anchor="middle" x="213.1" y="-74.196" font-family="Times,serif" font-size="14.00" fill="#000000">a</text>
</g>
<!-- s2&#45;&gt;s2 -->
<g id="edge9" class="edge">
<title>s2&#45;&gt;s2</title>
<path fill="none" stroke="#000000" d="M253.0307,-50.8059C251.4311,-60.4839 254.2875,-69.396 261.6,-69.396 266.1703,-69.396 269,-65.9147 270.089,-60.941"/>
<polygon fill="#000000" stroke="#000000" points="273.5899,-60.8334 270.1693,-50.8059 266.5901,-60.7778 273.5899,-60.8334"/>
<text text-anchor="middle" x="261.6" y="-73.196" font-family="Times,serif" font-size="14.00" fill="#000000">b</text>
</g>
<!-- s2&#45;&gt;s3 -->
<g id="edge10" class="edge">
<title>s2&#45;&gt;s3</title>
<path fill="none" stroke="#000000" d="M288.9554,-33.396C299.0654,-33.396 310.6357,-33.396 321.2107,-33.396"/>
<polygon fill="#000000" stroke="#000000" points="321.3629,-36.8961 331.3628,-33.396 321.3628,-29.8961 321.3629,-36.8961"/>
<text text-anchor="middle" x="310.1" y="-37.196" font-family="Times,serif" font-size="14.00" fill="#000000">c</text>
</g>
<!-- s3&#45;&gt;s3 -->
<g id="edge11" class="edge">
<title>s3&#45;&gt;s3</title>
<path fill="none" stroke="#000000" d="M346.3997,-54.832C345.4061,-65.1426 348.089,-74.2444 354.4483,-74.2444 358.5223,-74.2444 361.0874,-70.509 362.1437,-65.1134"/>
<polygon fill="#000000" stroke="#000000" points="365.6514,-64.9463 362.4969,-54.832 358.6556,-64.7059 365.6514,-64.9463"/>
<text text-anchor="middle" x="354.4483" y="-78.0444" font-family="Times,serif" font-size="14.00" fill="#000000">c</text>
</g>
</g>
</svg>
