<?xml version="1.0" encoding="UTF-8" standalone="no"?>
<!DOCTYPE svg PUBLIC "-//W3C//DTD SVG 1.1//EN"
 "http://www.w3.org/Graphics/SVG/1.1/DTD/svg11.dtd">
<!-- Generated by graphviz version 2.40.1 (20161225.0304)
 -->
<!-- Title: %3 Pages: 1 -->
<svg width="785pt" height="166pt"
 viewBox="0.00 0.00 784.79 166.00" xmlns="http://www.w3.org/2000/svg" xmlns:xlink="http://www.w3.org/1999/xlink">
<g id="graph0" class="graph" transform="scale(1 1) rotate(0) translate(4 162)">
<title>%3</title>
<polygon fill="#ffffff" stroke="transparent" points="-4,4 -4,-162 780.7926,-162 780.7926,4 -4,4"/>
<!-- ini -->
<g id="node1" class="node">
<title>ini</title>
<ellipse fill="#000000" stroke="#000000" cx="1.8" cy="-72" rx="1.8" ry="1.8"/>
</g>
<!-- s0 -->
<g id="node2" class="node">
<title>s0</title>
<ellipse fill="none" stroke="#000000" cx="67.6" cy="-72" rx="27" ry="18"/>
<text text-anchor="middle" x="67.6" y="-68.3" font-family="Times,serif" font-size="14.00" fill="#000000">s0</text>
</g>
<!-- ini&#45;&gt;s0 -->
<g id="edge1" class="edge">
<title>ini&#45;&gt;s0</title>
<path fill="none" stroke="#000000" d="M3.6983,-72C7.9356,-72 18.702,-72 30.2151,-72"/>
<polygon fill="#000000" stroke="#000000" points="30.3795,-75.5001 40.3795,-72 30.3794,-68.5001 30.3795,-75.5001"/>
</g>
<!-- s1 -->
<g id="node3" class="node">
<title>s1</title>
<ellipse fill="none" stroke="#000000" cx="166.6" cy="-72" rx="27" ry="18"/>
<text text-anchor="middle" x="166.6" y="-68.3" font-family="Times,serif" font-size="14.00" fill="#000000">s1</text>
</g>
<!-- s0&#45;&gt;s1 -->
<g id="edge2" class="edge">
<title>s0&#45;&gt;s1</title>
<path fill="none" stroke="#000000" d="M94.6522,-72C105.3472,-72 117.816,-72 129.3404,-72"/>
<polygon fill="#000000" stroke="#000000" points="129.5806,-75.5001 139.5805,-72 129.5805,-68.5001 129.5806,-75.5001"/>
<text text-anchor="middle" x="117.1" y="-75.8" font-family="Times,serif" font-size="14.00" fill="#000000">+</text>
</g>
<!-- s2 -->
<g id="node4" class="node">
<title>s2</title>
<ellipse fill="none" stroke="#000000" cx="166.6" cy="-18" rx="27" ry="18"/>
<text text-anchor="middle" x="166.6" y="-14.3" font-family="Times,serif" font-size="14.00" fill="#000000">s2</text>
</g>
<!-- s0&#45;&gt;s2 -->
<g id="edge3" class="edge">
<title>s0&#45;&gt;s2</title>
<path fill="none" stroke="#000000" d="M88.5954,-60.548C102.5084,-52.9591 120.9789,-42.8842 136.4541,-34.4432"/>
<polygon fill="#000000" stroke="#000000" points="138.5319,-37.2967 145.6349,-29.4355 135.1799,-31.1514 138.5319,-37.2967"/>
<text text-anchor="middle" x="117.1" y="-49.8" font-family="Times,serif" font-size="14.00" fill="#000000">&#45;</text>
</g>
<!-- s3 -->
<g id="node5" class="node">
<title>s3</title>
<ellipse fill="none" stroke="#000000" cx="266.6" cy="-72" rx="27" ry="18"/>
<text text-anchor="middle" x="266.6" y="-68.3" font-family="Times,serif" font-size="14.00" fill="#000000">s3</text>
</g>
<!-- s0&#45;&gt;s3 -->
<g id="edge4" class="edge">
<title>s0&#45;&gt;s3</title>
<path fill="none" stroke="#000000" d="M89.3224,-82.9445C103.281,-89.2635 122.0283,-96.4515 139.6,-99 175.8383,-104.2557 187.0654,-103.1737 221.6,-91 225.8539,-89.5005 230.2827,-87.8039 234.63,-86.0568"/>
<polygon fill="#000000" stroke="#000000" points="236.0188,-89.27 243.9174,-82.2087 233.3393,-82.8031 236.0188,-89.27"/>
<text text-anchor="middle" x="166.6" y="-104.8" font-family="Times,serif" font-size="14.00" fill="#000000">D</text>
</g>
<!-- s1&#45;&gt;s3 -->
<g id="edge5" class="edge">
<title>s1&#45;&gt;s3</title>
<path fill="none" stroke="#000000" d="M193.6614,-72C204.6669,-72 217.5653,-72 229.43,-72"/>
<polygon fill="#000000" stroke="#000000" points="229.517,-75.5001 239.5169,-72 229.5169,-68.5001 229.517,-75.5001"/>
<text text-anchor="middle" x="216.6" y="-75.8" font-family="Times,serif" font-size="14.00" fill="#000000">D</text>
</g>
<!-- s2&#45;&gt;s3 -->
<g id="edge6" class="edge">
<title>s2&#45;&gt;s3</title>
<path fill="none" stroke="#000000" d="M187.8074,-29.452C201.9936,-37.1125 220.8705,-47.3061 236.5911,-55.7952"/>
<polygon fill="#000000" stroke="#000000" points="234.961,-58.8926 245.4231,-60.5645 238.2871,-52.7333 234.961,-58.8926"/>
<text text-anchor="middle" x="216.6" y="-49.8" font-family="Times,serif" font-size="14.00" fill="#000000">D</text>
</g>
<!-- s3&#45;&gt;s3 -->
<g id="edge7" class="edge">
<title>s3&#45;&gt;s3</title>
<path fill="none" stroke="#000000" d="M258.3877,-89.4099C256.8548,-99.0879 259.5922,-108 266.6,-108 270.9799,-108 273.6916,-104.5187 274.7353,-99.5449"/>
<polygon fill="#000000" stroke="#000000" points="278.2361,-99.4362 274.8123,-89.4099 271.2363,-99.383 278.2361,-99.4362"/>
<text text-anchor="middle" x="266.6" y="-111.8" font-family="Times,serif" font-size="14.00" fill="#000000">D</text>
</g>
<!-- s4 -->
<g id="node6" class="node">
<title>s4</title>
<ellipse fill="none" stroke="#000000" cx="360.6" cy="-72" rx="27" ry="18"/>
<text text-anchor="middle" x="360.6" y="-68.3" font-family="Times,serif" font-size="14.00" fill="#000000">s4</text>
</g>
<!-- s3&#45;&gt;s4 -->
<g id="edge8" class="edge">
<title>s3&#45;&gt;s4</title>
<path fill="none" stroke="#000000" d="M293.7887,-72C303.0446,-72 313.5552,-72 323.4551,-72"/>
<polygon fill="#000000" stroke="#000000" points="323.4724,-75.5001 333.4724,-72 323.4724,-68.5001 323.4724,-75.5001"/>
<text text-anchor="middle" x="313.6" y="-75.8" font-family="Times,serif" font-size="14.00" fill="#000000">.</text>
</g>
<!-- s5 -->
<g id="node7" class="node">
<title>s5</title>
<ellipse fill="none" stroke="#000000" cx="456.4483" cy="-72" rx="18.724" ry="18.724"/>
<ellipse fill="none" stroke="#000000" cx="456.4483" cy="-72" rx="22.6977" ry="22.6977"/>
<text text-anchor="middle" x="456.4483" y="-68.3" font-family="Times,serif" font-size="14.00" fill="#000000">s5</text>
</g>
<!-- s4&#45;&gt;s5 -->
<g id="edge9" class="edge">
<title>s4&#45;&gt;s5</title>
<path fill="none" stroke="#000000" d="M387.8099,-72C398.8271,-72 411.6529,-72 423.2156,-72"/>
<polygon fill="#000000" stroke="#000000" points="423.3912,-75.5001 433.3912,-72 423.3911,-68.5001 423.3912,-75.5001"/>
<text text-anchor="middle" x="410.6" y="-75.8" font-family="Times,serif" font-size="14.00" fill="#000000">D</text>
</g>
<!-- s5&#45;&gt;s5 -->
<g id="edge10" class="edge">
<title>s5&#45;&gt;s5</title>
<path fill="none" stroke="#000000" d="M448.3997,-93.4359C447.4061,-103.7465 450.089,-112.8483 456.4483,-112.8483 460.5223,-112.8483 463.0874,-109.113 464.1437,-103.7174"/>
<polygon fill="#000000" stroke="#000000" points="467.6514,-103.5502 464.4969,-93.4359 460.6556,-103.3098 467.6514,-103.5502"/>
<text text-anchor="middle" x="456.4483" y="-116.6483" font-family="Times,serif" font-size="14.00" fill="#000000">D</text>
</g>
<!-- s6 -->
<g id="node8" class="node">
<title>s6</title>
<ellipse fill="none" stroke="#000000" cx="551.2967" cy="-110" rx="27" ry="18"/>
<text text-anchor="middle" x="551.2967" y="-106.3" font-family="Times,serif" font-size="14.00" fill="#000000">s6</text>
</g>
<!-- s5&#45;&gt;s6 -->
<g id="edge11" class="edge">
<title>s5&#45;&gt;s6</title>
<path fill="none" stroke="#000000" d="M477.9709,-80.6228C489.9339,-85.4156 505.0689,-91.4793 518.4777,-96.8514"/>
<polygon fill="#000000" stroke="#000000" points="517.2818,-100.1427 527.8662,-100.6128 519.8852,-93.6448 517.2818,-100.1427"/>
<text text-anchor="middle" x="501.7967" y="-94.8" font-family="Times,serif" font-size="14.00" fill="#000000">E</text>
</g>
<!-- s7 -->
<g id="node9" class="node">
<title>s7</title>
<ellipse fill="none" stroke="#000000" cx="551.2967" cy="-45" rx="27" ry="18"/>
<text text-anchor="middle" x="551.2967" y="-41.3" font-family="Times,serif" font-size="14.00" fill="#000000">s7</text>
</g>
<!-- s5&#45;&gt;s7 -->
<g id="edge12" class="edge">
<title>s5&#45;&gt;s7</title>
<path fill="none" stroke="#000000" d="M478.4468,-65.7378C489.7604,-62.5172 503.8148,-58.5164 516.5521,-54.8905"/>
<polygon fill="#000000" stroke="#000000" points="517.7477,-58.1893 526.4074,-52.0851 515.8312,-51.4568 517.7477,-58.1893"/>
<text text-anchor="middle" x="501.7967" y="-63.8" font-family="Times,serif" font-size="14.00" fill="#000000">e</text>
</g>
<!-- s8 -->
<g id="node10" class="node">
<title>s8</title>
<ellipse fill="none" stroke="#000000" cx="650.2967" cy="-102" rx="27" ry="18"/>
<text text-anchor="middle" x="650.2967" y="-98.3" font-family="Times,serif" font-size="14.00" fill="#000000">s8</text>
</g>
<!-- s6&#45;&gt;s8 -->
<g id="edge13" class="edge">
<title>s6&#45;&gt;s8</title>
<path fill="none" stroke="#000000" d="M577.9985,-113.3329C586.7211,-113.9286 596.4407,-114.0667 605.2967,-113 608.5704,-112.6057 611.9498,-112.0555 615.317,-111.4095"/>
<polygon fill="#000000" stroke="#000000" points="616.2376,-114.7912 625.2643,-109.2442 614.7487,-107.9514 616.2376,-114.7912"/>
<text text-anchor="middle" x="600.7967" y="-116.8" font-family="Times,serif" font-size="14.00" fill="#000000">+</text>
</g>
<!-- s9 -->
<g id="node11" class="node">
<title>s9</title>
<ellipse fill="none" stroke="#000000" cx="650.2967" cy="-48" rx="27" ry="18"/>
<text text-anchor="middle" x="650.2967" y="-44.3" font-family="Times,serif" font-size="14.00" fill="#000000">s9</text>
</g>
<!-- s6&#45;&gt;s9 -->
<g id="edge14" class="edge">
<title>s6&#45;&gt;s9</title>
<path fill="none" stroke="#000000" d="M571.3308,-97.4534C585.8231,-88.3774 605.6134,-75.9834 621.7562,-65.8738"/>
<polygon fill="#000000" stroke="#000000" points="623.6748,-68.802 630.2923,-60.528 619.9594,-62.8694 623.6748,-68.802"/>
<text text-anchor="middle" x="600.7967" y="-83.8" font-family="Times,serif" font-size="14.00" fill="#000000">&#45;</text>
</g>
<!-- s10 -->
<g id="node12" class="node">
<title>s10</title>
<ellipse fill="none" stroke="#000000" cx="750.0446" cy="-83" rx="22.9609" ry="22.9609"/>
<ellipse fill="none" stroke="#000000" cx="750.0446" cy="-83" rx="26.9983" ry="26.9983"/>
<text text-anchor="middle" x="750.0446" y="-79.3" font-family="Times,serif" font-size="14.00" fill="#000000">s10</text>
</g>
<!-- s6&#45;&gt;s10 -->
<g id="edge15" class="edge">
<title>s6&#45;&gt;s10</title>
<path fill="none" stroke="#000000" d="M571.6234,-122.3682C579.1045,-126.2541 587.8243,-130.0398 596.2967,-132 615.1397,-136.3595 575.6404,-159.7399 677.2967,-129 692.8694,-124.291 708.3544,-115.2671 721.0096,-106.4504"/>
<polygon fill="#000000" stroke="#000000" points="723.254,-109.1459 729.2851,-100.4351 719.1383,-103.4837 723.254,-109.1459"/>
<text text-anchor="middle" x="650.2967" y="-146.8" font-family="Times,serif" font-size="14.00" fill="#000000">D</text>
</g>
<!-- s7&#45;&gt;s8 -->
<g id="edge16" class="edge">
<title>s7&#45;&gt;s8</title>
<path fill="none" stroke="#000000" d="M577.5597,-49.6213C586.713,-51.9125 596.8093,-55.2421 605.2967,-60 608.0451,-61.5408 617.8119,-70.5759 627.5471,-79.8732"/>
<polygon fill="#000000" stroke="#000000" points="625.2348,-82.5053 634.8688,-86.9142 630.0869,-77.4598 625.2348,-82.5053"/>
<text text-anchor="middle" x="600.7967" y="-63.8" font-family="Times,serif" font-size="14.00" fill="#000000">+</text>
</g>
<!-- s7&#45;&gt;s9 -->
<g id="edge17" class="edge">
<title>s7&#45;&gt;s9</title>
<path fill="none" stroke="#000000" d="M568.848,-30.9666C579.1985,-24.3722 592.6985,-18.6222 605.2967,-22 611.3263,-23.6167 617.3837,-26.2586 623.0134,-29.2535"/>
<polygon fill="#000000" stroke="#000000" points="621.6039,-32.4837 632.0036,-34.5083 625.1363,-26.4403 621.6039,-32.4837"/>
<text text-anchor="middle" x="600.7967" y="-25.8" font-family="Times,serif" font-size="14.00" fill="#000000">&#45;</text>
</g>
<!-- s7&#45;&gt;s10 -->
<g id="edge18" class="edge">
<title>s7&#45;&gt;s10</title>
<path fill="none" stroke="#000000" d="M569.677,-31.2818C594.6097,-14.4649 640.285,9.9498 677.2967,-6 698.87,-15.2968 717.0263,-34.4863 729.8046,-51.3818"/>
<polygon fill="#000000" stroke="#000000" points="727.2947,-53.8846 735.9862,-59.9433 732.97,-49.7869 727.2947,-53.8846"/>
<text text-anchor="middle" x="650.2967" y="-9.8" font-family="Times,serif" font-size="14.00" fill="#000000">D</text>
</g>
<!-- s8&#45;&gt;s10 -->
<g id="edge19" class="edge">
<title>s8&#45;&gt;s10</title>
<path fill="none" stroke="#000000" d="M676.5043,-97.008C687.8683,-94.8434 701.3663,-92.2723 713.677,-89.9273"/>
<polygon fill="#000000" stroke="#000000" points="714.4973,-93.3341 723.6657,-88.0247 713.1874,-86.4577 714.4973,-93.3341"/>
<text text-anchor="middle" x="700.2967" y="-96.8" font-family="Times,serif" font-size="14.00" fill="#000000">D</text>
</g>
<!-- s9&#45;&gt;s10 -->
<g id="edge20" class="edge">
<title>s9&#45;&gt;s10</title>
<path fill="none" stroke="#000000" d="M674.4429,-56.4725C686.6915,-60.7704 701.7911,-66.0686 715.2672,-70.7971"/>
<polygon fill="#000000" stroke="#000000" points="714.1341,-74.1087 724.7289,-74.1171 716.4518,-67.5035 714.1341,-74.1087"/>
<text text-anchor="middle" x="700.2967" y="-69.8" font-family="Times,serif" font-size="14.00" fill="#000000">D</text>
</g>
<!-- s10&#45;&gt;s10 -->
<g id="edge21" class="edge">
<title>s10&#45;&gt;s10</title>
<path fill="none" stroke="#000000" d="M741.1237,-108.301C740.5085,-118.8261 743.4821,-127.748 750.0446,-127.748 754.3513,-127.748 757.1123,-123.9056 758.3278,-118.2894"/>
<polygon fill="#000000" stroke="#000000" points="761.8211,-118.5037 758.9655,-108.301 754.8353,-118.0576 761.8211,-118.5037"/>
<text text-anchor="middle" x="750.0446" y="-131.548" font-family="Times,serif" font-size="14.00" fill="#000000">D</text>
</g>
</g>
</svg>
