<?xml version="1.0" encoding="UTF-8" standalone="no"?>
<!DOCTYPE svg PUBLIC "-//W3C//DTD SVG 1.1//EN"
 "http://www.w3.org/Graphics/SVG/1.1/DTD/svg11.dtd">
<!-- Generated by graphviz version 2.40.1 (20161225.0304)
 -->
<!-- Title: %3 Pages: 1 -->
<svg width="1202pt" height="773pt"
 viewBox="0.00 0.00 1202.18 772.70" xmlns="http://www.w3.org/2000/svg" xmlns:xlink="http://www.w3.org/1999/xlink">
<g id="graph0" class="graph" transform="scale(1 1) rotate(0) translate(4 768.6978)">
<title>%3</title>
<polygon fill="#ffffff" stroke="transparent" points="-4,4 -4,-768.6978 1198.1825,-768.6978 1198.1825,4 -4,4"/>
<!-- ini -->
<g id="node1" class="node">
<title>ini</title>
<ellipse fill="#000000" stroke="#000000" cx="1.8" cy="-366.6978" rx="1.8" ry="1.8"/>
</g>
<!-- S0 -->
<g id="node2" class="node">
<title>S0</title>
<ellipse fill="none" stroke="#000000" cx="67.6" cy="-366.6978" rx="27" ry="18"/>
<text text-anchor="middle" x="67.6" y="-362.9978" font-family="Times,serif" font-size="14.00" fill="#000000">S0</text>
</g>
<!-- ini&#45;&gt;S0 -->
<g id="edge1" class="edge">
<title>ini&#45;&gt;S0</title>
<path fill="none" stroke="#000000" d="M3.6983,-366.6978C7.9356,-366.6978 18.702,-366.6978 30.2151,-366.6978"/>
<polygon fill="#000000" stroke="#000000" points="30.3795,-370.1979 40.3795,-366.6978 30.3794,-363.1979 30.3795,-370.1979"/>
</g>
<!-- S31 -->
<g id="node3" class="node">
<title>S31</title>
<ellipse fill="none" stroke="#000000" cx="164.6" cy="-700.6978" rx="27" ry="18"/>
<text text-anchor="middle" x="164.6" y="-696.9978" font-family="Times,serif" font-size="14.00" fill="#000000">S31</text>
</g>
<!-- S0&#45;&gt;S31 -->
<g id="edge2" class="edge">
<title>S0&#45;&gt;S31</title>
<path fill="none" stroke="#000000" d="M71.3468,-384.5728C80.6654,-428.101 106.4002,-542.8379 137.6,-635.6978 141.9175,-648.548 147.5634,-662.4674 152.5756,-674.1162"/>
<polygon fill="#000000" stroke="#000000" points="149.3768,-675.537 156.5937,-683.2938 155.7892,-672.7295 149.3768,-675.537"/>
<text text-anchor="middle" x="116.1" y="-580.4978" font-family="Times,serif" font-size="14.00" fill="#000000">ε</text>
</g>
<!-- S21 -->
<g id="node10" class="node">
<title>S21</title>
<ellipse fill="none" stroke="#000000" cx="164.6" cy="-608.6978" rx="27" ry="18"/>
<text text-anchor="middle" x="164.6" y="-604.9978" font-family="Times,serif" font-size="14.00" fill="#000000">S21</text>
</g>
<!-- S0&#45;&gt;S21 -->
<g id="edge3" class="edge">
<title>S0&#45;&gt;S21</title>
<path fill="none" stroke="#000000" d="M74.576,-384.1019C91.2791,-425.7734 133.6673,-531.5255 153.7414,-581.6072"/>
<polygon fill="#000000" stroke="#000000" points="150.5876,-583.1464 157.5569,-591.1263 157.085,-580.542 150.5876,-583.1464"/>
<text text-anchor="middle" x="116.1" y="-498.4978" font-family="Times,serif" font-size="14.00" fill="#000000">ε</text>
</g>
<!-- S13 -->
<g id="node21" class="node">
<title>S13</title>
<ellipse fill="none" stroke="#000000" cx="164.6" cy="-478.6978" rx="27" ry="18"/>
<text text-anchor="middle" x="164.6" y="-474.9978" font-family="Times,serif" font-size="14.00" fill="#000000">S13</text>
</g>
<!-- S0&#45;&gt;S13 -->
<g id="edge4" class="edge">
<title>S0&#45;&gt;S13</title>
<path fill="none" stroke="#000000" d="M80.0584,-382.7473C93.7248,-400.13 116.5257,-428.4856 137.6,-451.6978 138.9702,-453.207 140.4008,-454.7433 141.8576,-456.2782"/>
<polygon fill="#000000" stroke="#000000" points="139.7138,-459.0933 149.2,-463.8116 144.7267,-454.2074 139.7138,-459.0933"/>
<text text-anchor="middle" x="116.1" y="-432.4978" font-family="Times,serif" font-size="14.00" fill="#000000">ε</text>
</g>
<!-- S10 -->
<g id="node30" class="node">
<title>S10</title>
<ellipse fill="none" stroke="#000000" cx="164.6" cy="-424.6978" rx="27" ry="18"/>
<text text-anchor="middle" x="164.6" y="-420.9978" font-family="Times,serif" font-size="14.00" fill="#000000">S10</text>
</g>
<!-- S0&#45;&gt;S10 -->
<g id="edge5" class="edge">
<title>S0&#45;&gt;S10</title>
<path fill="none" stroke="#000000" d="M88.1712,-378.9981C102.0247,-387.2817 120.4901,-398.3228 135.8001,-407.4772"/>
<polygon fill="#000000" stroke="#000000" points="134.0121,-410.4861 144.3911,-412.6141 137.6045,-404.4782 134.0121,-410.4861"/>
<text text-anchor="middle" x="116.1" y="-400.4978" font-family="Times,serif" font-size="14.00" fill="#000000">ε</text>
</g>
<!-- S5 -->
<g id="node34" class="node">
<title>S5</title>
<ellipse fill="none" stroke="#000000" cx="164.6" cy="-366.6978" rx="27" ry="18"/>
<text text-anchor="middle" x="164.6" y="-362.9978" font-family="Times,serif" font-size="14.00" fill="#000000">S5</text>
</g>
<!-- S0&#45;&gt;S5 -->
<g id="edge6" class="edge">
<title>S0&#45;&gt;S5</title>
<path fill="none" stroke="#000000" d="M94.6199,-366.6978C104.7304,-366.6978 116.4016,-366.6978 127.2794,-366.6978"/>
<polygon fill="#000000" stroke="#000000" points="127.3886,-370.1979 137.3886,-366.6978 127.3885,-363.1979 127.3886,-370.1979"/>
<text text-anchor="middle" x="116.1" y="-370.4978" font-family="Times,serif" font-size="14.00" fill="#000000">ε</text>
</g>
<!-- S4 -->
<g id="node40" class="node">
<title>S4</title>
<ellipse fill="none" stroke="#000000" cx="164.6" cy="-304.6978" rx="27" ry="18"/>
<text text-anchor="middle" x="164.6" y="-300.9978" font-family="Times,serif" font-size="14.00" fill="#000000">S4</text>
</g>
<!-- S0&#45;&gt;S4 -->
<g id="edge7" class="edge">
<title>S0&#45;&gt;S4</title>
<path fill="none" stroke="#000000" d="M87.2294,-354.1512C101.2974,-345.1592 120.4608,-332.9105 136.1959,-322.853"/>
<polygon fill="#000000" stroke="#000000" points="138.4589,-325.5605 144.9998,-317.2258 134.6889,-319.6624 138.4589,-325.5605"/>
<text text-anchor="middle" x="116.1" y="-340.4978" font-family="Times,serif" font-size="14.00" fill="#000000">ε</text>
</g>
<!-- S3 -->
<g id="node42" class="node">
<title>S3</title>
<ellipse fill="none" stroke="#000000" cx="164.6" cy="-234.6978" rx="27" ry="18"/>
<text text-anchor="middle" x="164.6" y="-230.9978" font-family="Times,serif" font-size="14.00" fill="#000000">S3</text>
</g>
<!-- S0&#45;&gt;S3 -->
<g id="edge8" class="edge">
<title>S0&#45;&gt;S3</title>
<path fill="none" stroke="#000000" d="M79.4941,-350.512C96.293,-327.6517 127.0998,-285.7291 146.6784,-259.0859"/>
<polygon fill="#000000" stroke="#000000" points="149.5074,-261.1468 152.6086,-251.016 143.8666,-257.0017 149.5074,-261.1468"/>
<text text-anchor="middle" x="116.1" y="-307.4978" font-family="Times,serif" font-size="14.00" fill="#000000">ε</text>
</g>
<!-- S2 -->
<g id="node44" class="node">
<title>S2</title>
<ellipse fill="none" stroke="#000000" cx="164.6" cy="-148.6978" rx="27" ry="18"/>
<text text-anchor="middle" x="164.6" y="-144.9978" font-family="Times,serif" font-size="14.00" fill="#000000">S2</text>
</g>
<!-- S0&#45;&gt;S2 -->
<g id="edge9" class="edge">
<title>S0&#45;&gt;S2</title>
<path fill="none" stroke="#000000" d="M75.2857,-349.0144C88.0831,-319.6213 114.6252,-258.8768 137.6,-207.6978 142.3896,-197.0285 147.735,-185.3094 152.3977,-175.1467"/>
<polygon fill="#000000" stroke="#000000" points="155.6217,-176.5129 156.6185,-165.965 149.2616,-173.5891 155.6217,-176.5129"/>
<text text-anchor="middle" x="116.1" y="-263.4978" font-family="Times,serif" font-size="14.00" fill="#000000">ε</text>
</g>
<!-- S1 -->
<g id="node46" class="node">
<title>S1</title>
<ellipse fill="none" stroke="#000000" cx="164.6" cy="-30.6978" rx="27" ry="18"/>
<text text-anchor="middle" x="164.6" y="-26.9978" font-family="Times,serif" font-size="14.00" fill="#000000">S1</text>
</g>
<!-- S0&#45;&gt;S1 -->
<g id="edge10" class="edge">
<title>S0&#45;&gt;S1</title>
<path fill="none" stroke="#000000" d="M72.6324,-348.8503C84.0533,-308.3975 112.8639,-206.6431 137.6,-121.6978 143.8299,-100.3039 151.0111,-76.1229 156.4008,-58.0673"/>
<polygon fill="#000000" stroke="#000000" points="159.7595,-59.0515 159.2696,-48.468 153.0526,-57.047 159.7595,-59.0515"/>
<text text-anchor="middle" x="116.1" y="-205.4978" font-family="Times,serif" font-size="14.00" fill="#000000">ε</text>
</g>
<!-- S35 -->
<g id="node4" class="node">
<title>S35</title>
<ellipse fill="none" stroke="#000000" cx="269.2978" cy="-746.6978" rx="27" ry="18"/>
<text text-anchor="middle" x="269.2978" y="-742.9978" font-family="Times,serif" font-size="14.00" fill="#000000">S35</text>
</g>
<!-- S31&#45;&gt;S35 -->
<g id="edge11" class="edge">
<title>S31&#45;&gt;S35</title>
<path fill="none" stroke="#000000" d="M187.3179,-710.6791C201.8608,-717.0687 220.9531,-725.4571 237.0535,-732.531"/>
<polygon fill="#000000" stroke="#000000" points="236.0611,-735.9178 246.6243,-736.736 238.8768,-729.5091 236.0611,-735.9178"/>
<text text-anchor="middle" x="216.1" y="-728.4978" font-family="Times,serif" font-size="14.00" fill="#000000">ε</text>
</g>
<!-- S32 -->
<g id="node6" class="node">
<title>S32</title>
<ellipse fill="none" stroke="#000000" cx="472.6934" cy="-724.6978" rx="27" ry="18"/>
<text text-anchor="middle" x="472.6934" y="-720.9978" font-family="Times,serif" font-size="14.00" fill="#000000">S32</text>
</g>
<!-- S31&#45;&gt;S32 -->
<g id="edge12" class="edge">
<title>S31&#45;&gt;S32</title>
<path fill="none" stroke="#000000" d="M191.6712,-702.8066C246.9163,-707.1101 372.7157,-716.9097 435.547,-721.8042"/>
<polygon fill="#000000" stroke="#000000" points="435.5519,-725.3151 445.7936,-722.6024 436.0956,-718.3362 435.5519,-725.3151"/>
<text text-anchor="middle" x="322.4956" y="-716.4978" font-family="Times,serif" font-size="14.00" fill="#000000">ε</text>
</g>
<!-- S36 -->
<g id="node5" class="node">
<title>S36</title>
<ellipse fill="none" stroke="#000000" cx="373.9956" cy="-746.6978" rx="27" ry="18"/>
<text text-anchor="middle" x="373.9956" y="-742.9978" font-family="Times,serif" font-size="14.00" fill="#000000">S36</text>
</g>
<!-- S35&#45;&gt;S36 -->
<g id="edge13" class="edge">
<title>S35&#45;&gt;S36</title>
<path fill="none" stroke="#000000" d="M296.5326,-746.6978C308.7716,-746.6978 323.4107,-746.6978 336.6511,-746.6978"/>
<polygon fill="#000000" stroke="#000000" points="336.8972,-750.1979 346.8972,-746.6978 336.8971,-743.1979 336.8972,-750.1979"/>
<text text-anchor="middle" x="322.4956" y="-750.4978" font-family="Times,serif" font-size="14.00" fill="#000000">S</text>
</g>
<!-- S36&#45;&gt;S32 -->
<g id="edge14" class="edge">
<title>S36&#45;&gt;S32</title>
<path fill="none" stroke="#000000" d="M399.6697,-740.975C411.0037,-738.4486 424.5214,-735.4355 436.8274,-732.6924"/>
<polygon fill="#000000" stroke="#000000" points="437.8061,-736.0603 446.8051,-730.4684 436.2831,-729.2279 437.8061,-736.0603"/>
<text text-anchor="middle" x="422.4956" y="-739.4978" font-family="Times,serif" font-size="14.00" fill="#000000">ε</text>
</g>
<!-- S33 -->
<g id="node7" class="node">
<title>S33</title>
<ellipse fill="none" stroke="#000000" cx="574.3912" cy="-724.6978" rx="27" ry="18"/>
<text text-anchor="middle" x="574.3912" y="-720.9978" font-family="Times,serif" font-size="14.00" fill="#000000">S33</text>
</g>
<!-- S32&#45;&gt;S33 -->
<g id="edge15" class="edge">
<title>S32&#45;&gt;S33</title>
<path fill="none" stroke="#000000" d="M499.9466,-724.6978C511.2321,-724.6978 524.5101,-724.6978 536.7037,-724.6978"/>
<polygon fill="#000000" stroke="#000000" points="537.0629,-728.1979 547.0629,-724.6978 537.0628,-721.1979 537.0629,-728.1979"/>
<text text-anchor="middle" x="524.3912" y="-728.4978" font-family="Times,serif" font-size="14.00" fill="#000000">ε</text>
</g>
<!-- S34 -->
<g id="node8" class="node">
<title>S34</title>
<ellipse fill="none" stroke="#000000" cx="674.3912" cy="-725.6978" rx="27" ry="18"/>
<text text-anchor="middle" x="674.3912" y="-721.9978" font-family="Times,serif" font-size="14.00" fill="#000000">S34</text>
</g>
<!-- S33&#45;&gt;S34 -->
<g id="edge16" class="edge">
<title>S33&#45;&gt;S34</title>
<path fill="none" stroke="#000000" d="M601.4527,-724.9684C612.4581,-725.0785 625.3566,-725.2075 637.2213,-725.3261"/>
<polygon fill="#000000" stroke="#000000" points="637.2736,-728.8267 647.3082,-725.427 637.3437,-721.8271 637.2736,-728.8267"/>
<text text-anchor="middle" x="624.3912" y="-728.4978" font-family="Times,serif" font-size="14.00" fill="#000000">D</text>
</g>
<!-- S34&#45;&gt;S33 -->
<g id="edge17" class="edge">
<title>S34&#45;&gt;S33</title>
<path fill="none" stroke="#000000" d="M653.4918,-714.2341C646.1025,-710.7756 637.5871,-707.4371 629.3912,-705.6978 620.7968,-703.8739 611.6942,-705.4821 603.4206,-708.4009"/>
<polygon fill="#000000" stroke="#000000" points="602.0232,-705.1916 594.169,-712.3023 604.7432,-711.6416 602.0232,-705.1916"/>
<text text-anchor="middle" x="624.3912" y="-709.4978" font-family="Times,serif" font-size="14.00" fill="#000000">ε</text>
</g>
<!-- T10 -->
<g id="node9" class="node">
<title>T10</title>
<ellipse fill="none" stroke="#000000" cx="773.089" cy="-725.6978" rx="24.8692" ry="24.8692"/>
<ellipse fill="none" stroke="#000000" cx="773.089" cy="-725.6978" rx="28.897" ry="28.897"/>
<text text-anchor="middle" x="773.089" y="-721.9978" font-family="Times,serif" font-size="14.00" fill="#000000">T10</text>
</g>
<!-- S34&#45;&gt;T10 -->
<g id="edge18" class="edge">
<title>S34&#45;&gt;T10</title>
<path fill="none" stroke="#000000" d="M701.6221,-725.6978C711.6537,-725.6978 723.2228,-725.6978 734.0906,-725.6978"/>
<polygon fill="#000000" stroke="#000000" points="734.2223,-729.1979 744.2223,-725.6978 734.2222,-722.1979 734.2223,-729.1979"/>
<text text-anchor="middle" x="722.8912" y="-729.4978" font-family="Times,serif" font-size="14.00" fill="#000000">ε</text>
</g>
<!-- S29 -->
<g id="node11" class="node">
<title>S29</title>
<ellipse fill="none" stroke="#000000" cx="269.2978" cy="-654.6978" rx="27" ry="18"/>
<text text-anchor="middle" x="269.2978" y="-650.9978" font-family="Times,serif" font-size="14.00" fill="#000000">S29</text>
</g>
<!-- S21&#45;&gt;S29 -->
<g id="edge19" class="edge">
<title>S21&#45;&gt;S29</title>
<path fill="none" stroke="#000000" d="M187.3179,-618.6791C201.8608,-625.0687 220.9531,-633.4571 237.0535,-640.531"/>
<polygon fill="#000000" stroke="#000000" points="236.0611,-643.9178 246.6243,-644.736 238.8768,-637.5091 236.0611,-643.9178"/>
<text text-anchor="middle" x="216.1" y="-636.4978" font-family="Times,serif" font-size="14.00" fill="#000000">ε</text>
</g>
<!-- S22 -->
<g id="node13" class="node">
<title>S22</title>
<ellipse fill="none" stroke="#000000" cx="472.6934" cy="-655.6978" rx="27" ry="18"/>
<text text-anchor="middle" x="472.6934" y="-651.9978" font-family="Times,serif" font-size="14.00" fill="#000000">S22</text>
</g>
<!-- S21&#45;&gt;S22 -->
<g id="edge20" class="edge">
<title>S21&#45;&gt;S22</title>
<path fill="none" stroke="#000000" d="M191.9352,-608.3285C236.3683,-608.2972 326.7665,-610.6103 400.9956,-627.6978 414.5593,-630.8202 428.9545,-636.0368 441.2593,-641.1267"/>
<polygon fill="#000000" stroke="#000000" points="440.0532,-644.4176 450.6235,-645.139 442.8102,-637.9834 440.0532,-644.4176"/>
<text text-anchor="middle" x="322.4956" y="-618.4978" font-family="Times,serif" font-size="14.00" fill="#000000">ε</text>
</g>
<!-- S30 -->
<g id="node12" class="node">
<title>S30</title>
<ellipse fill="none" stroke="#000000" cx="373.9956" cy="-654.6978" rx="27" ry="18"/>
<text text-anchor="middle" x="373.9956" y="-650.9978" font-family="Times,serif" font-size="14.00" fill="#000000">S30</text>
</g>
<!-- S29&#45;&gt;S30 -->
<g id="edge21" class="edge">
<title>S29&#45;&gt;S30</title>
<path fill="none" stroke="#000000" d="M296.5326,-654.6978C308.7716,-654.6978 323.4107,-654.6978 336.6511,-654.6978"/>
<polygon fill="#000000" stroke="#000000" points="336.8972,-658.1979 346.8972,-654.6978 336.8971,-651.1979 336.8972,-658.1979"/>
<text text-anchor="middle" x="322.4956" y="-658.4978" font-family="Times,serif" font-size="14.00" fill="#000000">S</text>
</g>
<!-- S30&#45;&gt;S22 -->
<g id="edge22" class="edge">
<title>S30&#45;&gt;S22</title>
<path fill="none" stroke="#000000" d="M401.2265,-654.9737C411.7984,-655.0808 424.0778,-655.2052 435.4444,-655.3204"/>
<polygon fill="#000000" stroke="#000000" points="435.5164,-658.8212 445.5514,-655.4228 435.5874,-651.8216 435.5164,-658.8212"/>
<text text-anchor="middle" x="422.4956" y="-658.4978" font-family="Times,serif" font-size="14.00" fill="#000000">ε</text>
</g>
<!-- S23 -->
<g id="node14" class="node">
<title>S23</title>
<ellipse fill="none" stroke="#000000" cx="574.3912" cy="-655.6978" rx="27" ry="18"/>
<text text-anchor="middle" x="574.3912" y="-651.9978" font-family="Times,serif" font-size="14.00" fill="#000000">S23</text>
</g>
<!-- S22&#45;&gt;S23 -->
<g id="edge23" class="edge">
<title>S22&#45;&gt;S23</title>
<path fill="none" stroke="#000000" d="M499.9466,-655.6978C511.2321,-655.6978 524.5101,-655.6978 536.7037,-655.6978"/>
<polygon fill="#000000" stroke="#000000" points="537.0629,-659.1979 547.0629,-655.6978 537.0628,-652.1979 537.0629,-659.1979"/>
<text text-anchor="middle" x="524.3912" y="-659.4978" font-family="Times,serif" font-size="14.00" fill="#000000">ε</text>
</g>
<!-- S24 -->
<g id="node15" class="node">
<title>S24</title>
<ellipse fill="none" stroke="#000000" cx="674.3912" cy="-641.6978" rx="27" ry="18"/>
<text text-anchor="middle" x="674.3912" y="-637.9978" font-family="Times,serif" font-size="14.00" fill="#000000">S24</text>
</g>
<!-- S23&#45;&gt;S24 -->
<g id="edge24" class="edge">
<title>S23&#45;&gt;S24</title>
<path fill="none" stroke="#000000" d="M600.9269,-651.9828C612.2281,-650.4006 625.5976,-648.5289 637.813,-646.8188"/>
<polygon fill="#000000" stroke="#000000" points="638.3135,-650.2829 647.7316,-645.4302 637.3429,-643.3505 638.3135,-650.2829"/>
<text text-anchor="middle" x="624.3912" y="-652.4978" font-family="Times,serif" font-size="14.00" fill="#000000">D</text>
</g>
<!-- S24&#45;&gt;S23 -->
<g id="edge25" class="edge">
<title>S24&#45;&gt;S23</title>
<path fill="none" stroke="#000000" d="M652.0813,-631.2901C642.0445,-627.9243 630.0762,-625.7383 619.3912,-628.6978 613.053,-630.4534 606.7111,-633.3658 600.8717,-636.643"/>
<polygon fill="#000000" stroke="#000000" points="598.8718,-633.7638 592.1818,-641.9793 602.5349,-639.7289 598.8718,-633.7638"/>
<text text-anchor="middle" x="624.3912" y="-632.4978" font-family="Times,serif" font-size="14.00" fill="#000000">ε</text>
</g>
<!-- S25 -->
<g id="node16" class="node">
<title>S25</title>
<ellipse fill="none" stroke="#000000" cx="773.089" cy="-641.6978" rx="27" ry="18"/>
<text text-anchor="middle" x="773.089" y="-637.9978" font-family="Times,serif" font-size="14.00" fill="#000000">S25</text>
</g>
<!-- S24&#45;&gt;S25 -->
<g id="edge26" class="edge">
<title>S24&#45;&gt;S25</title>
<path fill="none" stroke="#000000" d="M701.6221,-641.6978C712.194,-641.6978 724.4734,-641.6978 735.84,-641.6978"/>
<polygon fill="#000000" stroke="#000000" points="735.9471,-645.1979 745.947,-641.6978 735.947,-638.1979 735.9471,-645.1979"/>
<text text-anchor="middle" x="722.8912" y="-645.4978" font-family="Times,serif" font-size="14.00" fill="#000000">ε</text>
</g>
<!-- S26 -->
<g id="node17" class="node">
<title>S26</title>
<ellipse fill="none" stroke="#000000" cx="869.7869" cy="-641.6978" rx="27" ry="18"/>
<text text-anchor="middle" x="869.7869" y="-637.9978" font-family="Times,serif" font-size="14.00" fill="#000000">S26</text>
</g>
<!-- S25&#45;&gt;S26 -->
<g id="edge27" class="edge">
<title>S25&#45;&gt;S26</title>
<path fill="none" stroke="#000000" d="M800.2821,-641.6978C810.1695,-641.6978 821.5272,-641.6978 832.1571,-641.6978"/>
<polygon fill="#000000" stroke="#000000" points="832.4629,-645.1979 842.4629,-641.6978 832.4628,-638.1979 832.4629,-645.1979"/>
<text text-anchor="middle" x="822.2869" y="-645.4978" font-family="Times,serif" font-size="14.00" fill="#000000">&#45;</text>
</g>
<!-- S27 -->
<g id="node18" class="node">
<title>S27</title>
<ellipse fill="none" stroke="#000000" cx="966.7869" cy="-641.6978" rx="27" ry="18"/>
<text text-anchor="middle" x="966.7869" y="-637.9978" font-family="Times,serif" font-size="14.00" fill="#000000">S27</text>
</g>
<!-- S26&#45;&gt;S27 -->
<g id="edge28" class="edge">
<title>S26&#45;&gt;S27</title>
<path fill="none" stroke="#000000" d="M896.8068,-641.6978C906.9173,-641.6978 918.5885,-641.6978 929.4662,-641.6978"/>
<polygon fill="#000000" stroke="#000000" points="929.5755,-645.1979 939.5754,-641.6978 929.5754,-638.1979 929.5755,-645.1979"/>
<text text-anchor="middle" x="918.2869" y="-645.4978" font-family="Times,serif" font-size="14.00" fill="#000000">ε</text>
</g>
<!-- S28 -->
<g id="node19" class="node">
<title>S28</title>
<ellipse fill="none" stroke="#000000" cx="1066.7869" cy="-641.6978" rx="27" ry="18"/>
<text text-anchor="middle" x="1066.7869" y="-637.9978" font-family="Times,serif" font-size="14.00" fill="#000000">S28</text>
</g>
<!-- S27&#45;&gt;S28 -->
<g id="edge29" class="edge">
<title>S27&#45;&gt;S28</title>
<path fill="none" stroke="#000000" d="M993.8483,-641.6978C1004.8538,-641.6978 1017.7522,-641.6978 1029.6169,-641.6978"/>
<polygon fill="#000000" stroke="#000000" points="1029.7038,-645.1979 1039.7038,-641.6978 1029.7037,-638.1979 1029.7038,-645.1979"/>
<text text-anchor="middle" x="1016.7869" y="-645.4978" font-family="Times,serif" font-size="14.00" fill="#000000">D</text>
</g>
<!-- S28&#45;&gt;S27 -->
<g id="edge30" class="edge">
<title>S28&#45;&gt;S27</title>
<path fill="none" stroke="#000000" d="M1045.3758,-630.6026C1038.089,-627.389 1029.7661,-624.3133 1021.7869,-622.6978 1013.1757,-620.9544 1004.0677,-622.5884 995.7944,-625.5061"/>
<polygon fill="#000000" stroke="#000000" points="994.4065,-622.2928 986.5452,-629.3957 997.1201,-628.7455 994.4065,-622.2928"/>
<text text-anchor="middle" x="1016.7869" y="-626.4978" font-family="Times,serif" font-size="14.00" fill="#000000">ε</text>
</g>
<!-- T20 -->
<g id="node20" class="node">
<title>T20</title>
<ellipse fill="none" stroke="#000000" cx="1165.4847" cy="-641.6978" rx="24.8692" ry="24.8692"/>
<ellipse fill="none" stroke="#000000" cx="1165.4847" cy="-641.6978" rx="28.897" ry="28.897"/>
<text text-anchor="middle" x="1165.4847" y="-637.9978" font-family="Times,serif" font-size="14.00" fill="#000000">T20</text>
</g>
<!-- S28&#45;&gt;T20 -->
<g id="edge31" class="edge">
<title>S28&#45;&gt;T20</title>
<path fill="none" stroke="#000000" d="M1094.0177,-641.6978C1104.0493,-641.6978 1115.6184,-641.6978 1126.4862,-641.6978"/>
<polygon fill="#000000" stroke="#000000" points="1126.6179,-645.1979 1136.6179,-641.6978 1126.6178,-638.1979 1126.6179,-645.1979"/>
<text text-anchor="middle" x="1115.2869" y="-645.4978" font-family="Times,serif" font-size="14.00" fill="#000000">ε</text>
</g>
<!-- S14 -->
<g id="node22" class="node">
<title>S14</title>
<ellipse fill="none" stroke="#000000" cx="269.2978" cy="-480.6978" rx="27" ry="18"/>
<text text-anchor="middle" x="269.2978" y="-476.9978" font-family="Times,serif" font-size="14.00" fill="#000000">S14</text>
</g>
<!-- S13&#45;&gt;S14 -->
<g id="edge32" class="edge">
<title>S13&#45;&gt;S14</title>
<path fill="none" stroke="#000000" d="M191.8348,-479.2181C204.0737,-479.4519 218.7129,-479.7315 231.9533,-479.9844"/>
<polygon fill="#000000" stroke="#000000" points="232.1343,-483.4884 242.1994,-480.1802 232.2681,-476.4897 232.1343,-483.4884"/>
<text text-anchor="middle" x="216.1" y="-483.4978" font-family="Times,serif" font-size="14.00" fill="#000000">L</text>
</g>
<!-- S15 -->
<g id="node23" class="node">
<title>S15</title>
<ellipse fill="none" stroke="#000000" cx="373.9956" cy="-523.6978" rx="27" ry="18"/>
<text text-anchor="middle" x="373.9956" y="-519.9978" font-family="Times,serif" font-size="14.00" fill="#000000">S15</text>
</g>
<!-- S14&#45;&gt;S15 -->
<g id="edge33" class="edge">
<title>S14&#45;&gt;S15</title>
<path fill="none" stroke="#000000" d="M292.5336,-490.2409C306.9018,-496.142 325.5603,-503.8051 341.3944,-510.3083"/>
<polygon fill="#000000" stroke="#000000" points="340.2448,-513.6198 350.8247,-514.1814 342.9042,-507.1446 340.2448,-513.6198"/>
<text text-anchor="middle" x="322.4956" y="-508.4978" font-family="Times,serif" font-size="14.00" fill="#000000">ε</text>
</g>
<!-- T30 -->
<g id="node29" class="node">
<title>T30</title>
<ellipse fill="none" stroke="#000000" cx="773.089" cy="-487.6978" rx="24.8692" ry="24.8692"/>
<ellipse fill="none" stroke="#000000" cx="773.089" cy="-487.6978" rx="28.897" ry="28.897"/>
<text text-anchor="middle" x="773.089" y="-483.9978" font-family="Times,serif" font-size="14.00" fill="#000000">T30</text>
</g>
<!-- S14&#45;&gt;T30 -->
<g id="edge34" class="edge">
<title>S14&#45;&gt;T30</title>
<path fill="none" stroke="#000000" d="M294.9255,-474.1738C316.0072,-469.3797 346.7418,-463.6978 373.9956,-463.6978 373.9956,-463.6978 373.9956,-463.6978 674.3912,-463.6978 695.2218,-463.6978 717.843,-468.8077 736.1672,-474.3119"/>
<polygon fill="#000000" stroke="#000000" points="735.2766,-477.701 745.8665,-477.3804 737.388,-471.0271 735.2766,-477.701"/>
<text text-anchor="middle" x="524.3912" y="-467.4978" font-family="Times,serif" font-size="14.00" fill="#000000">ε</text>
</g>
<!-- S19 -->
<g id="node24" class="node">
<title>S19</title>
<ellipse fill="none" stroke="#000000" cx="472.6934" cy="-601.6978" rx="27" ry="18"/>
<text text-anchor="middle" x="472.6934" y="-597.9978" font-family="Times,serif" font-size="14.00" fill="#000000">S19</text>
</g>
<!-- S15&#45;&gt;S19 -->
<g id="edge35" class="edge">
<title>S15&#45;&gt;S19</title>
<path fill="none" stroke="#000000" d="M391.6408,-537.6426C407.0794,-549.8436 429.6971,-567.7182 447.1196,-581.4871"/>
<polygon fill="#000000" stroke="#000000" points="445.1851,-584.4193 455.201,-587.8737 449.5254,-578.9273 445.1851,-584.4193"/>
<text text-anchor="middle" x="422.4956" y="-566.4978" font-family="Times,serif" font-size="14.00" fill="#000000">ε</text>
</g>
<!-- S16 -->
<g id="node26" class="node">
<title>S16</title>
<ellipse fill="none" stroke="#000000" cx="472.6934" cy="-547.6978" rx="27" ry="18"/>
<text text-anchor="middle" x="472.6934" y="-543.9978" font-family="Times,serif" font-size="14.00" fill="#000000">S16</text>
</g>
<!-- S15&#45;&gt;S16 -->
<g id="edge36" class="edge">
<title>S15&#45;&gt;S16</title>
<path fill="none" stroke="#000000" d="M399.4128,-529.8784C410.836,-532.6562 424.5166,-535.9828 436.9479,-539.0057"/>
<polygon fill="#000000" stroke="#000000" points="436.4755,-542.4928 447.0194,-541.4547 438.1295,-535.691 436.4755,-542.4928"/>
<text text-anchor="middle" x="422.4956" y="-539.4978" font-family="Times,serif" font-size="14.00" fill="#000000">ε</text>
</g>
<!-- S20 -->
<g id="node25" class="node">
<title>S20</title>
<ellipse fill="none" stroke="#000000" cx="574.3912" cy="-601.6978" rx="27" ry="18"/>
<text text-anchor="middle" x="574.3912" y="-597.9978" font-family="Times,serif" font-size="14.00" fill="#000000">S20</text>
</g>
<!-- S19&#45;&gt;S20 -->
<g id="edge37" class="edge">
<title>S19&#45;&gt;S20</title>
<path fill="none" stroke="#000000" d="M499.9466,-601.6978C511.2321,-601.6978 524.5101,-601.6978 536.7037,-601.6978"/>
<polygon fill="#000000" stroke="#000000" points="537.0629,-605.1979 547.0629,-601.6978 537.0628,-598.1979 537.0629,-605.1979"/>
<text text-anchor="middle" x="524.3912" y="-605.4978" font-family="Times,serif" font-size="14.00" fill="#000000">L</text>
</g>
<!-- S18 -->
<g id="node28" class="node">
<title>S18</title>
<ellipse fill="none" stroke="#000000" cx="674.3912" cy="-525.6978" rx="27" ry="18"/>
<text text-anchor="middle" x="674.3912" y="-521.9978" font-family="Times,serif" font-size="14.00" fill="#000000">S18</text>
</g>
<!-- S20&#45;&gt;S18 -->
<g id="edge38" class="edge">
<title>S20&#45;&gt;S18</title>
<path fill="none" stroke="#000000" d="M592.2692,-588.1105C607.815,-576.2958 630.545,-559.021 648.1525,-545.6392"/>
<polygon fill="#000000" stroke="#000000" points="650.487,-548.2611 656.3309,-539.4237 646.2514,-542.688 650.487,-548.2611"/>
<text text-anchor="middle" x="624.3912" y="-569.4978" font-family="Times,serif" font-size="14.00" fill="#000000">ε</text>
</g>
<!-- S17 -->
<g id="node27" class="node">
<title>S17</title>
<ellipse fill="none" stroke="#000000" cx="574.3912" cy="-547.6978" rx="27" ry="18"/>
<text text-anchor="middle" x="574.3912" y="-543.9978" font-family="Times,serif" font-size="14.00" fill="#000000">S17</text>
</g>
<!-- S16&#45;&gt;S17 -->
<g id="edge39" class="edge">
<title>S16&#45;&gt;S17</title>
<path fill="none" stroke="#000000" d="M499.9466,-547.6978C511.2321,-547.6978 524.5101,-547.6978 536.7037,-547.6978"/>
<polygon fill="#000000" stroke="#000000" points="537.0629,-551.1979 547.0629,-547.6978 537.0628,-544.1979 537.0629,-551.1979"/>
<text text-anchor="middle" x="524.3912" y="-551.4978" font-family="Times,serif" font-size="14.00" fill="#000000">D</text>
</g>
<!-- S17&#45;&gt;S18 -->
<g id="edge40" class="edge">
<title>S17&#45;&gt;S18</title>
<path fill="none" stroke="#000000" d="M600.1437,-542.0323C611.9247,-539.4404 626.0754,-536.3273 638.8488,-533.5171"/>
<polygon fill="#000000" stroke="#000000" points="639.7116,-536.9111 648.726,-531.3442 638.2075,-530.0746 639.7116,-536.9111"/>
<text text-anchor="middle" x="624.3912" y="-540.4978" font-family="Times,serif" font-size="14.00" fill="#000000">ε</text>
</g>
<!-- S18&#45;&gt;S15 -->
<g id="edge41" class="edge">
<title>S18&#45;&gt;S15</title>
<path fill="none" stroke="#000000" d="M647.373,-523.405C633.6185,-522.3502 616.6263,-521.2189 601.3912,-520.6978 531.4785,-518.3063 513.9332,-519.1998 443.9956,-520.6978 433.3242,-520.9264 421.744,-521.3507 411.1318,-521.8098"/>
<polygon fill="#000000" stroke="#000000" points="410.7425,-518.3238 400.9119,-522.2745 411.0605,-525.3166 410.7425,-518.3238"/>
<text text-anchor="middle" x="524.3912" y="-522.4978" font-family="Times,serif" font-size="14.00" fill="#000000">ε</text>
</g>
<!-- S18&#45;&gt;T30 -->
<g id="edge42" class="edge">
<title>S18&#45;&gt;T30</title>
<path fill="none" stroke="#000000" d="M697.7812,-516.6923C709.3193,-512.25 723.504,-506.7887 736.4396,-501.8083"/>
<polygon fill="#000000" stroke="#000000" points="737.9489,-504.9777 746.0236,-498.1184 735.4338,-498.4452 737.9489,-504.9777"/>
<text text-anchor="middle" x="722.8912" y="-511.4978" font-family="Times,serif" font-size="14.00" fill="#000000">ε</text>
</g>
<!-- S11 -->
<g id="node31" class="node">
<title>S11</title>
<ellipse fill="none" stroke="#000000" cx="269.2978" cy="-426.6978" rx="27" ry="18"/>
<text text-anchor="middle" x="269.2978" y="-422.9978" font-family="Times,serif" font-size="14.00" fill="#000000">S11</text>
</g>
<!-- S10&#45;&gt;S11 -->
<g id="edge43" class="edge">
<title>S10&#45;&gt;S11</title>
<path fill="none" stroke="#000000" d="M191.8348,-425.2181C204.0737,-425.4519 218.7129,-425.7315 231.9533,-425.9844"/>
<polygon fill="#000000" stroke="#000000" points="232.1343,-429.4884 242.1994,-426.1802 232.2681,-422.4897 232.1343,-429.4884"/>
<text text-anchor="middle" x="216.1" y="-429.4978" font-family="Times,serif" font-size="14.00" fill="#000000">ε</text>
</g>
<!-- S12 -->
<g id="node32" class="node">
<title>S12</title>
<ellipse fill="none" stroke="#000000" cx="373.9956" cy="-411.6978" rx="27" ry="18"/>
<text text-anchor="middle" x="373.9956" y="-407.9978" font-family="Times,serif" font-size="14.00" fill="#000000">S12</text>
</g>
<!-- S11&#45;&gt;S12 -->
<g id="edge44" class="edge">
<title>S11&#45;&gt;S12</title>
<path fill="none" stroke="#000000" d="M295.7175,-422.9127C308.365,-421.1007 323.714,-418.9016 337.4582,-416.9325"/>
<polygon fill="#000000" stroke="#000000" points="338.1819,-420.3647 347.5844,-415.4817 337.1891,-413.4354 338.1819,-420.3647"/>
<text text-anchor="middle" x="322.4956" y="-422.4978" font-family="Times,serif" font-size="14.00" fill="#000000">T</text>
</g>
<!-- S12&#45;&gt;S11 -->
<g id="edge45" class="edge">
<title>S12&#45;&gt;S11</title>
<path fill="none" stroke="#000000" d="M351.5579,-401.5131C340.7464,-397.9153 327.6316,-395.4767 315.9956,-398.6978 309.1401,-400.5956 302.28,-403.797 296.0104,-407.3716"/>
<polygon fill="#000000" stroke="#000000" points="293.9672,-404.5204 287.3164,-412.7676 297.6587,-410.4679 293.9672,-404.5204"/>
<text text-anchor="middle" x="322.4956" y="-402.4978" font-family="Times,serif" font-size="14.00" fill="#000000">ε</text>
</g>
<!-- T40 -->
<g id="node33" class="node">
<title>T40</title>
<ellipse fill="none" stroke="#000000" cx="472.6934" cy="-406.6978" rx="24.8692" ry="24.8692"/>
<ellipse fill="none" stroke="#000000" cx="472.6934" cy="-406.6978" rx="28.897" ry="28.897"/>
<text text-anchor="middle" x="472.6934" y="-402.9978" font-family="Times,serif" font-size="14.00" fill="#000000">T40</text>
</g>
<!-- S12&#45;&gt;T40 -->
<g id="edge46" class="edge">
<title>S12&#45;&gt;T40</title>
<path fill="none" stroke="#000000" d="M400.9652,-410.3315C411.0863,-409.8188 422.8007,-409.2254 433.7907,-408.6686"/>
<polygon fill="#000000" stroke="#000000" points="434.2199,-412.1515 444.0299,-408.1499 433.8656,-405.1604 434.2199,-412.1515"/>
<text text-anchor="middle" x="422.4956" y="-412.4978" font-family="Times,serif" font-size="14.00" fill="#000000">ε</text>
</g>
<!-- S8 -->
<g id="node35" class="node">
<title>S8</title>
<ellipse fill="none" stroke="#000000" cx="269.2978" cy="-372.6978" rx="27" ry="18"/>
<text text-anchor="middle" x="269.2978" y="-368.9978" font-family="Times,serif" font-size="14.00" fill="#000000">S8</text>
</g>
<!-- S5&#45;&gt;S8 -->
<g id="edge47" class="edge">
<title>S5&#45;&gt;S8</title>
<path fill="none" stroke="#000000" d="M191.5623,-368.243C203.8011,-368.9443 218.4827,-369.7857 231.7744,-370.5474"/>
<polygon fill="#000000" stroke="#000000" points="231.8791,-374.0591 242.063,-371.137 232.2797,-367.0705 231.8791,-374.0591"/>
<text text-anchor="middle" x="216.1" y="-373.4978" font-family="Times,serif" font-size="14.00" fill="#000000">ε</text>
</g>
<!-- S6 -->
<g id="node37" class="node">
<title>S6</title>
<ellipse fill="none" stroke="#000000" cx="269.2978" cy="-318.6978" rx="27" ry="18"/>
<text text-anchor="middle" x="269.2978" y="-314.9978" font-family="Times,serif" font-size="14.00" fill="#000000">S6</text>
</g>
<!-- S5&#45;&gt;S6 -->
<g id="edge48" class="edge">
<title>S5&#45;&gt;S6</title>
<path fill="none" stroke="#000000" d="M187.0603,-356.4006C201.8272,-349.6305 221.3659,-340.6728 237.693,-333.1874"/>
<polygon fill="#000000" stroke="#000000" points="239.2431,-336.3271 246.8746,-328.978 236.3258,-329.964 239.2431,-336.3271"/>
<text text-anchor="middle" x="216.1" y="-348.4978" font-family="Times,serif" font-size="14.00" fill="#000000">ε</text>
</g>
<!-- S9 -->
<g id="node36" class="node">
<title>S9</title>
<ellipse fill="none" stroke="#000000" cx="373.9956" cy="-357.6978" rx="27" ry="18"/>
<text text-anchor="middle" x="373.9956" y="-353.9978" font-family="Times,serif" font-size="14.00" fill="#000000">S9</text>
</g>
<!-- S8&#45;&gt;S9 -->
<g id="edge49" class="edge">
<title>S8&#45;&gt;S9</title>
<path fill="none" stroke="#000000" d="M295.7175,-368.9127C308.365,-367.1007 323.714,-364.9016 337.4582,-362.9325"/>
<polygon fill="#000000" stroke="#000000" points="338.1819,-366.3647 347.5844,-361.4817 337.1891,-359.4354 338.1819,-366.3647"/>
<text text-anchor="middle" x="322.4956" y="-368.4978" font-family="Times,serif" font-size="14.00" fill="#000000">M</text>
</g>
<!-- T50 -->
<g id="node39" class="node">
<title>T50</title>
<ellipse fill="none" stroke="#000000" cx="472.6934" cy="-321.6978" rx="24.8692" ry="24.8692"/>
<ellipse fill="none" stroke="#000000" cx="472.6934" cy="-321.6978" rx="28.897" ry="28.897"/>
<text text-anchor="middle" x="472.6934" y="-317.9978" font-family="Times,serif" font-size="14.00" fill="#000000">T50</text>
</g>
<!-- S9&#45;&gt;T50 -->
<g id="edge50" class="edge">
<title>S9&#45;&gt;T50</title>
<path fill="none" stroke="#000000" d="M397.8876,-348.9832C409.3441,-344.8045 423.3212,-339.7063 436.0794,-335.0528"/>
<polygon fill="#000000" stroke="#000000" points="437.3409,-338.3183 445.5361,-331.6034 434.9422,-331.7421 437.3409,-338.3183"/>
<text text-anchor="middle" x="422.4956" y="-344.4978" font-family="Times,serif" font-size="14.00" fill="#000000">ε</text>
</g>
<!-- S7 -->
<g id="node38" class="node">
<title>S7</title>
<ellipse fill="none" stroke="#000000" cx="373.9956" cy="-303.6978" rx="27" ry="18"/>
<text text-anchor="middle" x="373.9956" y="-299.9978" font-family="Times,serif" font-size="14.00" fill="#000000">S7</text>
</g>
<!-- S6&#45;&gt;S7 -->
<g id="edge51" class="edge">
<title>S6&#45;&gt;S7</title>
<path fill="none" stroke="#000000" d="M295.7175,-314.9127C308.365,-313.1007 323.714,-310.9016 337.4582,-308.9325"/>
<polygon fill="#000000" stroke="#000000" points="338.1819,-312.3647 347.5844,-307.4817 337.1891,-305.4354 338.1819,-312.3647"/>
<text text-anchor="middle" x="322.4956" y="-314.4978" font-family="Times,serif" font-size="14.00" fill="#000000">M</text>
</g>
<!-- S7&#45;&gt;T50 -->
<g id="edge52" class="edge">
<title>S7&#45;&gt;T50</title>
<path fill="none" stroke="#000000" d="M400.1999,-308.1332C408.4595,-309.558 417.614,-311.1649 425.9956,-312.6978 428.6453,-313.1824 431.3781,-313.6897 434.1298,-314.2059"/>
<polygon fill="#000000" stroke="#000000" points="433.585,-317.6649 444.0622,-316.0905 434.8899,-310.7876 433.585,-317.6649"/>
<text text-anchor="middle" x="422.4956" y="-316.4978" font-family="Times,serif" font-size="14.00" fill="#000000">ε</text>
</g>
<!-- T60 -->
<g id="node41" class="node">
<title>T60</title>
<ellipse fill="none" stroke="#000000" cx="269.2978" cy="-253.6978" rx="24.8692" ry="24.8692"/>
<ellipse fill="none" stroke="#000000" cx="269.2978" cy="-253.6978" rx="28.897" ry="28.897"/>
<text text-anchor="middle" x="269.2978" y="-249.9978" font-family="Times,serif" font-size="14.00" fill="#000000">T60</text>
</g>
<!-- S4&#45;&gt;T60 -->
<g id="edge53" class="edge">
<title>S4&#45;&gt;T60</title>
<path fill="none" stroke="#000000" d="M186.5481,-294.0065C200.2533,-287.3305 218.2127,-278.5822 233.897,-270.9421"/>
<polygon fill="#000000" stroke="#000000" points="235.8529,-273.8826 243.3103,-266.3568 232.7874,-267.5895 235.8529,-273.8826"/>
<text text-anchor="middle" x="216.1" y="-285.4978" font-family="Times,serif" font-size="14.00" fill="#000000">M</text>
</g>
<!-- T70 -->
<g id="node43" class="node">
<title>T70</title>
<ellipse fill="none" stroke="#000000" cx="269.2978" cy="-178.6978" rx="24.8692" ry="24.8692"/>
<ellipse fill="none" stroke="#000000" cx="269.2978" cy="-178.6978" rx="28.897" ry="28.897"/>
<text text-anchor="middle" x="269.2978" y="-174.9978" font-family="Times,serif" font-size="14.00" fill="#000000">T70</text>
</g>
<!-- S3&#45;&gt;T70 -->
<g id="edge54" class="edge">
<title>S3&#45;&gt;T70</title>
<path fill="none" stroke="#000000" d="M185.7872,-223.3654C199.7729,-215.8848 218.4242,-205.9087 234.5524,-197.2822"/>
<polygon fill="#000000" stroke="#000000" points="236.5355,-200.1908 243.7026,-192.388 233.2339,-194.0182 236.5355,-200.1908"/>
<text text-anchor="middle" x="216.1" y="-213.4978" font-family="Times,serif" font-size="14.00" fill="#000000">P</text>
</g>
<!-- T80 -->
<g id="node45" class="node">
<title>T80</title>
<ellipse fill="none" stroke="#000000" cx="269.2978" cy="-103.6978" rx="24.8692" ry="24.8692"/>
<ellipse fill="none" stroke="#000000" cx="269.2978" cy="-103.6978" rx="28.897" ry="28.897"/>
<text text-anchor="middle" x="269.2978" y="-99.9978" font-family="Times,serif" font-size="14.00" fill="#000000">T80</text>
</g>
<!-- S2&#45;&gt;T80 -->
<g id="edge55" class="edge">
<title>S2&#45;&gt;T80</title>
<path fill="none" stroke="#000000" d="M187.3179,-138.9335C200.8647,-133.1109 218.359,-125.5917 233.7055,-118.9957"/>
<polygon fill="#000000" stroke="#000000" points="235.1236,-122.1958 242.9288,-115.0314 232.3594,-115.7647 235.1236,-122.1958"/>
<text text-anchor="middle" x="216.1" y="-132.4978" font-family="Times,serif" font-size="14.00" fill="#000000">A</text>
</g>
<!-- T90 -->
<g id="node47" class="node">
<title>T90</title>
<ellipse fill="none" stroke="#000000" cx="269.2978" cy="-28.6978" rx="24.8692" ry="24.8692"/>
<ellipse fill="none" stroke="#000000" cx="269.2978" cy="-28.6978" rx="28.897" ry="28.897"/>
<text text-anchor="middle" x="269.2978" y="-24.9978" font-family="Times,serif" font-size="14.00" fill="#000000">T90</text>
</g>
<!-- S1&#45;&gt;T90 -->
<g id="edge56" class="edge">
<title>S1&#45;&gt;T90</title>
<path fill="none" stroke="#000000" d="M191.8348,-30.1776C203.4792,-29.9551 217.2963,-29.6912 230.0143,-29.4482"/>
<polygon fill="#000000" stroke="#000000" points="230.4358,-32.9409 240.3671,-29.2505 230.302,-25.9422 230.4358,-32.9409"/>
<text text-anchor="middle" x="216.1" y="-34.4978" font-family="Times,serif" font-size="14.00" fill="#000000">B</text>
</g>
</g>
</svg>
