<?xml version="1.0" encoding="UTF-8" standalone="no"?>
<!DOCTYPE svg PUBLIC "-//W3C//DTD SVG 1.1//EN"
 "http://www.w3.org/Graphics/SVG/1.1/DTD/svg11.dtd">
<!-- Generated by graphviz version 2.40.1 (20161225.0304)
 -->
<!-- Title: %3 Pages: 1 -->
<svg width="508pt" height="552pt"
 viewBox="0.00 0.00 507.59 551.60" xmlns="http://www.w3.org/2000/svg" xmlns:xlink="http://www.w3.org/1999/xlink">
<g id="graph0" class="graph" transform="scale(1 1) rotate(0) translate(4 547.5963)">
<title>%3</title>
<polygon fill="#ffffff" stroke="transparent" points="-4,4 -4,-547.5963 503.5919,-547.5963 503.5919,4 -4,4"/>
<!-- ini -->
<g id="node1" class="node">
<title>ini</title>
<ellipse fill="#000000" stroke="#000000" cx="1.8" cy="-252.8483" rx="1.8" ry="1.8"/>
</g>
<!-- s0 -->
<g id="node2" class="node">
<title>s0</title>
<ellipse fill="none" stroke="#000000" cx="67.6" cy="-252.8483" rx="27" ry="18"/>
<text text-anchor="middle" x="67.6" y="-249.1483" font-family="Times,serif" font-size="14.00" fill="#000000">s0</text>
</g>
<!-- ini&#45;&gt;s0 -->
<g id="edge1" class="edge">
<title>ini&#45;&gt;s0</title>
<path fill="none" stroke="#000000" d="M3.6983,-252.8483C7.9356,-252.8483 18.702,-252.8483 30.2151,-252.8483"/>
<polygon fill="#000000" stroke="#000000" points="30.3795,-256.3484 40.3795,-252.8483 30.3794,-249.3484 30.3795,-256.3484"/>
</g>
<!-- s1 -->
<g id="node3" class="node">
<title>s1</title>
<ellipse fill="none" stroke="#000000" cx="170.6" cy="-485.8483" rx="27" ry="18"/>
<text text-anchor="middle" x="170.6" y="-482.1483" font-family="Times,serif" font-size="14.00" fill="#000000">s1</text>
</g>
<!-- s0&#45;&gt;s1 -->
<g id="edge2" class="edge">
<title>s0&#45;&gt;s1</title>
<path fill="none" stroke="#000000" d="M69.9613,-270.8491C75.8465,-313.6133 92.1742,-419.8905 112.6,-448.8483 119.1214,-458.0938 128.7579,-465.5631 138.3113,-471.3049"/>
<polygon fill="#000000" stroke="#000000" points="136.8937,-474.5199 147.3409,-476.2821 140.2728,-468.3896 136.8937,-474.5199"/>
<text text-anchor="middle" x="119.1" y="-465.6483" font-family="Times,serif" font-size="14.00" fill="#000000">S</text>
</g>
<!-- s2 -->
<g id="node4" class="node">
<title>s2</title>
<ellipse fill="none" stroke="#000000" cx="273.348" cy="-483.8483" rx="18.724" ry="18.724"/>
<ellipse fill="none" stroke="#000000" cx="273.348" cy="-483.8483" rx="22.6977" ry="22.6977"/>
<text text-anchor="middle" x="273.348" y="-480.1483" font-family="Times,serif" font-size="14.00" fill="#000000">s2</text>
</g>
<!-- s0&#45;&gt;s2 -->
<g id="edge3" class="edge">
<title>s0&#45;&gt;s2</title>
<path fill="none" stroke="#000000" d="M72.5719,-270.6125C81.9999,-301.6375 105.0556,-366.3407 143.6,-407.8483 151.3049,-416.1456 208.16,-448.1035 244.0063,-467.8405"/>
<polygon fill="#000000" stroke="#000000" points="242.6127,-471.0682 253.0628,-472.8133 245.9818,-464.9323 242.6127,-471.0682"/>
<text text-anchor="middle" x="170.6" y="-444.6483" font-family="Times,serif" font-size="14.00" fill="#000000">D</text>
</g>
<!-- s3 -->
<g id="node5" class="node">
<title>s3</title>
<ellipse fill="none" stroke="#000000" cx="170.6" cy="-375.8483" rx="18.724" ry="18.724"/>
<ellipse fill="none" stroke="#000000" cx="170.6" cy="-375.8483" rx="22.6977" ry="22.6977"/>
<text text-anchor="middle" x="170.6" y="-372.1483" font-family="Times,serif" font-size="14.00" fill="#000000">s3</text>
</g>
<!-- s0&#45;&gt;s3 -->
<g id="edge4" class="edge">
<title>s0&#45;&gt;s3</title>
<path fill="none" stroke="#000000" d="M80.7565,-268.6505C95.8909,-286.8168 121.4989,-317.5202 143.6,-343.8483 145.4402,-346.0405 147.353,-348.3153 149.2727,-350.5955"/>
<polygon fill="#000000" stroke="#000000" points="146.6088,-352.8658 155.7297,-358.2565 151.9612,-348.3545 146.6088,-352.8658"/>
<text text-anchor="middle" x="119.1" y="-324.6483" font-family="Times,serif" font-size="14.00" fill="#000000">L</text>
</g>
<!-- s4 -->
<g id="node6" class="node">
<title>s4</title>
<ellipse fill="none" stroke="#000000" cx="170.6" cy="-278.8483" rx="18.724" ry="18.724"/>
<ellipse fill="none" stroke="#000000" cx="170.6" cy="-278.8483" rx="22.6977" ry="22.6977"/>
<text text-anchor="middle" x="170.6" y="-275.1483" font-family="Times,serif" font-size="14.00" fill="#000000">s4</text>
</g>
<!-- s0&#45;&gt;s4 -->
<g id="edge5" class="edge">
<title>s0&#45;&gt;s4</title>
<path fill="none" stroke="#000000" d="M93.0607,-259.2753C106.6749,-262.7119 123.5838,-266.9801 138.1338,-270.653"/>
<polygon fill="#000000" stroke="#000000" points="137.6782,-274.1477 148.2307,-273.2017 139.3915,-267.3606 137.6782,-274.1477"/>
<text text-anchor="middle" x="119.1" y="-270.6483" font-family="Times,serif" font-size="14.00" fill="#000000">T</text>
</g>
<!-- s5 -->
<g id="node7" class="node">
<title>s5</title>
<ellipse fill="none" stroke="#000000" cx="170.6" cy="-214.8483" rx="18.724" ry="18.724"/>
<ellipse fill="none" stroke="#000000" cx="170.6" cy="-214.8483" rx="22.6977" ry="22.6977"/>
<text text-anchor="middle" x="170.6" y="-211.1483" font-family="Times,serif" font-size="14.00" fill="#000000">s5</text>
</g>
<!-- s0&#45;&gt;s5 -->
<g id="edge6" class="edge">
<title>s0&#45;&gt;s5</title>
<path fill="none" stroke="#000000" d="M91.2303,-244.1304C105.4567,-238.8818 123.7435,-232.1352 139.1778,-226.441"/>
<polygon fill="#000000" stroke="#000000" points="140.6666,-229.6224 148.837,-222.8774 138.2437,-223.0551 140.6666,-229.6224"/>
<text text-anchor="middle" x="119.1" y="-239.6483" font-family="Times,serif" font-size="14.00" fill="#000000">M</text>
</g>
<!-- s6 -->
<g id="node8" class="node">
<title>s6</title>
<ellipse fill="none" stroke="#000000" cx="170.6" cy="-150.8483" rx="18.724" ry="18.724"/>
<ellipse fill="none" stroke="#000000" cx="170.6" cy="-150.8483" rx="22.6977" ry="22.6977"/>
<text text-anchor="middle" x="170.6" y="-147.1483" font-family="Times,serif" font-size="14.00" fill="#000000">s6</text>
</g>
<!-- s0&#45;&gt;s6 -->
<g id="edge7" class="edge">
<title>s0&#45;&gt;s6</title>
<path fill="none" stroke="#000000" d="M82.798,-237.7979C99.7681,-220.9925 127.4381,-193.5912 147.1794,-174.0415"/>
<polygon fill="#000000" stroke="#000000" points="149.6757,-176.4953 154.3184,-166.9718 144.7501,-171.5214 149.6757,-176.4953"/>
<text text-anchor="middle" x="119.1" y="-211.6483" font-family="Times,serif" font-size="14.00" fill="#000000">P</text>
</g>
<!-- s7 -->
<g id="node9" class="node">
<title>s7</title>
<ellipse fill="none" stroke="#000000" cx="170.6" cy="-86.8483" rx="18.724" ry="18.724"/>
<ellipse fill="none" stroke="#000000" cx="170.6" cy="-86.8483" rx="22.6977" ry="22.6977"/>
<text text-anchor="middle" x="170.6" y="-83.1483" font-family="Times,serif" font-size="14.00" fill="#000000">s7</text>
</g>
<!-- s0&#45;&gt;s7 -->
<g id="edge8" class="edge">
<title>s0&#45;&gt;s7</title>
<path fill="none" stroke="#000000" d="M76.223,-235.3117C89.3965,-209.109 115.9322,-158.571 143.6,-118.8483 145.2358,-116.4998 147.0072,-114.1166 148.8337,-111.7651"/>
<polygon fill="#000000" stroke="#000000" points="151.5599,-113.9601 155.1393,-103.9882 146.1226,-109.5515 151.5599,-113.9601"/>
<text text-anchor="middle" x="119.1" y="-168.6483" font-family="Times,serif" font-size="14.00" fill="#000000">A</text>
</g>
<!-- s8 -->
<g id="node10" class="node">
<title>s8</title>
<ellipse fill="none" stroke="#000000" cx="170.6" cy="-22.8483" rx="18.724" ry="18.724"/>
<ellipse fill="none" stroke="#000000" cx="170.6" cy="-22.8483" rx="22.6977" ry="22.6977"/>
<text text-anchor="middle" x="170.6" y="-19.1483" font-family="Times,serif" font-size="14.00" fill="#000000">s8</text>
</g>
<!-- s0&#45;&gt;s8 -->
<g id="edge9" class="edge">
<title>s0&#45;&gt;s8</title>
<path fill="none" stroke="#000000" d="M72.0838,-234.8983C81.5833,-198.88 105.9968,-116.0135 143.6,-54.8483 145.099,-52.4101 146.7756,-49.9649 148.5397,-47.5726"/>
<polygon fill="#000000" stroke="#000000" points="151.285,-49.7436 154.7439,-39.7292 145.7949,-45.4008 151.285,-49.7436"/>
<text text-anchor="middle" x="119.1" y="-115.6483" font-family="Times,serif" font-size="14.00" fill="#000000">B</text>
</g>
<!-- s1&#45;&gt;s2 -->
<g id="edge10" class="edge">
<title>s1&#45;&gt;s2</title>
<path fill="none" stroke="#000000" d="M197.5958,-485.3229C210.6728,-485.0683 226.4933,-484.7604 240.2871,-484.4919"/>
<polygon fill="#000000" stroke="#000000" points="240.4313,-487.9898 250.3613,-484.2958 240.295,-480.9911 240.4313,-487.9898"/>
<text text-anchor="middle" x="222.1" y="-488.6483" font-family="Times,serif" font-size="14.00" fill="#000000">D</text>
</g>
<!-- s2&#45;&gt;s2 -->
<g id="edge11" class="edge">
<title>s2&#45;&gt;s2</title>
<path fill="none" stroke="#000000" d="M264.5677,-505.2843C263.4837,-515.5949 266.4105,-524.6967 273.348,-524.6967 277.7923,-524.6967 280.5906,-520.9613 281.743,-515.5657"/>
<polygon fill="#000000" stroke="#000000" points="285.2512,-515.4083 282.1283,-505.2843 278.2561,-515.1461 285.2512,-515.4083"/>
<text text-anchor="middle" x="273.348" y="-528.4967" font-family="Times,serif" font-size="14.00" fill="#000000">D</text>
</g>
<!-- s9 -->
<g id="node11" class="node">
<title>s9</title>
<ellipse fill="none" stroke="#000000" cx="373.096" cy="-483.8483" rx="27" ry="18"/>
<text text-anchor="middle" x="373.096" y="-480.1483" font-family="Times,serif" font-size="14.00" fill="#000000">s9</text>
</g>
<!-- s2&#45;&gt;s9 -->
<g id="edge12" class="edge">
<title>s2&#45;&gt;s9</title>
<path fill="none" stroke="#000000" d="M296.4829,-483.8483C308.1084,-483.8483 322.4858,-483.8483 335.6342,-483.8483"/>
<polygon fill="#000000" stroke="#000000" points="335.8394,-487.3484 345.8394,-483.8483 335.8394,-480.3484 335.8394,-487.3484"/>
<text text-anchor="middle" x="323.096" y="-487.6483" font-family="Times,serif" font-size="14.00" fill="#000000">.</text>
</g>
<!-- s10 -->
<g id="node12" class="node">
<title>s10</title>
<ellipse fill="none" stroke="#000000" cx="273.348" cy="-380.8483" rx="22.9609" ry="22.9609"/>
<ellipse fill="none" stroke="#000000" cx="273.348" cy="-380.8483" rx="26.9983" ry="26.9983"/>
<text text-anchor="middle" x="273.348" y="-377.1483" font-family="Times,serif" font-size="14.00" fill="#000000">s10</text>
</g>
<!-- s3&#45;&gt;s10 -->
<g id="edge13" class="edge">
<title>s3&#45;&gt;s10</title>
<path fill="none" stroke="#000000" d="M193.6587,-376.9704C206.2279,-377.5821 222.0858,-378.3538 236.3394,-379.0474"/>
<polygon fill="#000000" stroke="#000000" points="236.2064,-382.545 246.3647,-379.5352 236.5467,-375.5532 236.2064,-382.545"/>
<text text-anchor="middle" x="222.1" y="-381.6483" font-family="Times,serif" font-size="14.00" fill="#000000">D</text>
</g>
<!-- s11 -->
<g id="node13" class="node">
<title>s11</title>
<ellipse fill="none" stroke="#000000" cx="373.096" cy="-353.8483" rx="22.9609" ry="22.9609"/>
<ellipse fill="none" stroke="#000000" cx="373.096" cy="-353.8483" rx="26.9983" ry="26.9983"/>
<text text-anchor="middle" x="373.096" y="-350.1483" font-family="Times,serif" font-size="14.00" fill="#000000">s11</text>
</g>
<!-- s3&#45;&gt;s11 -->
<g id="edge14" class="edge">
<title>s3&#45;&gt;s11</title>
<path fill="none" stroke="#000000" d="M188.3244,-361.2462C202.9447,-350.2053 224.7625,-335.9424 246.6,-329.8483 277.3916,-321.2555 313.2582,-329.7538 338.9196,-338.9289"/>
<polygon fill="#000000" stroke="#000000" points="337.9721,-342.3126 348.5635,-342.5801 340.4506,-335.7661 337.9721,-342.3126"/>
<text text-anchor="middle" x="273.348" y="-333.6483" font-family="Times,serif" font-size="14.00" fill="#000000">L</text>
</g>
<!-- s4&#45;&gt;s4 -->
<g id="edge15" class="edge">
<title>s4&#45;&gt;s4</title>
<path fill="none" stroke="#000000" d="M161.5019,-299.8656C160.2431,-310.3472 163.2758,-319.6967 170.6,-319.6967 175.4065,-319.6967 178.3648,-315.6702 179.4749,-309.9396"/>
<polygon fill="#000000" stroke="#000000" points="182.9757,-309.9407 179.6981,-299.8656 175.9774,-309.7856 182.9757,-309.9407"/>
<text text-anchor="middle" x="170.6" y="-323.4967" font-family="Times,serif" font-size="14.00" fill="#000000">T</text>
</g>
<!-- s12 -->
<g id="node14" class="node">
<title>s12</title>
<ellipse fill="none" stroke="#000000" cx="273.348" cy="-214.8483" rx="22.9609" ry="22.9609"/>
<ellipse fill="none" stroke="#000000" cx="273.348" cy="-214.8483" rx="26.9983" ry="26.9983"/>
<text text-anchor="middle" x="273.348" y="-211.1483" font-family="Times,serif" font-size="14.00" fill="#000000">s12</text>
</g>
<!-- s5&#45;&gt;s12 -->
<g id="edge16" class="edge">
<title>s5&#45;&gt;s12</title>
<path fill="none" stroke="#000000" d="M193.6587,-214.8483C206.2279,-214.8483 222.0858,-214.8483 236.3394,-214.8483"/>
<polygon fill="#000000" stroke="#000000" points="236.3648,-218.3484 246.3647,-214.8483 236.3647,-211.3484 236.3648,-218.3484"/>
<text text-anchor="middle" x="222.1" y="-218.6483" font-family="Times,serif" font-size="14.00" fill="#000000">M</text>
</g>
<!-- s13 -->
<g id="node15" class="node">
<title>s13</title>
<ellipse fill="none" stroke="#000000" cx="472.8439" cy="-483.8483" rx="22.9609" ry="22.9609"/>
<ellipse fill="none" stroke="#000000" cx="472.8439" cy="-483.8483" rx="26.9983" ry="26.9983"/>
<text text-anchor="middle" x="472.8439" y="-480.1483" font-family="Times,serif" font-size="14.00" fill="#000000">s13</text>
</g>
<!-- s9&#45;&gt;s13 -->
<g id="edge17" class="edge">
<title>s9&#45;&gt;s13</title>
<path fill="none" stroke="#000000" d="M400.3525,-483.8483C411.3276,-483.8483 424.1564,-483.8483 435.9457,-483.8483"/>
<polygon fill="#000000" stroke="#000000" points="435.9657,-487.3484 445.9657,-483.8483 435.9657,-480.3484 435.9657,-487.3484"/>
<text text-anchor="middle" x="423.096" y="-487.6483" font-family="Times,serif" font-size="14.00" fill="#000000">D</text>
</g>
<!-- s10&#45;&gt;s10 -->
<g id="edge18" class="edge">
<title>s10&#45;&gt;s10</title>
<path fill="none" stroke="#000000" d="M264.4271,-406.1493C263.8118,-416.6744 266.7855,-425.5963 273.348,-425.5963 277.6546,-425.5963 280.4157,-421.754 281.6311,-416.1377"/>
<polygon fill="#000000" stroke="#000000" points="285.1245,-416.352 282.2689,-406.1493 278.1387,-415.9059 285.1245,-416.352"/>
<text text-anchor="middle" x="273.348" y="-429.3963" font-family="Times,serif" font-size="14.00" fill="#000000">D</text>
</g>
<!-- s10&#45;&gt;s11 -->
<g id="edge19" class="edge">
<title>s10&#45;&gt;s11</title>
<path fill="none" stroke="#000000" d="M299.9832,-376.2916C308.9774,-374.5428 319.0326,-372.3562 328.096,-369.8483 331.4748,-368.9134 334.9651,-367.8508 338.4378,-366.7283"/>
<polygon fill="#000000" stroke="#000000" points="339.7244,-369.9879 348.071,-363.4622 337.4767,-363.3585 339.7244,-369.9879"/>
<text text-anchor="middle" x="323.096" y="-375.6483" font-family="Times,serif" font-size="14.00" fill="#000000">L</text>
</g>
<!-- s11&#45;&gt;s10 -->
<g id="edge20" class="edge">
<title>s11&#45;&gt;s10</title>
<path fill="none" stroke="#000000" d="M346.63,-348.7385C337.4307,-347.9176 327.1534,-348.0931 318.096,-350.8483 312.727,-352.4815 307.4167,-354.9971 302.4324,-357.8917"/>
<polygon fill="#000000" stroke="#000000" points="300.3849,-355.0472 293.8707,-363.4028 304.1737,-360.9333 300.3849,-355.0472"/>
<text text-anchor="middle" x="323.096" y="-354.6483" font-family="Times,serif" font-size="14.00" fill="#000000">D</text>
</g>
<!-- s11&#45;&gt;s11 -->
<g id="edge21" class="edge">
<title>s11&#45;&gt;s11</title>
<path fill="none" stroke="#000000" d="M364.1751,-379.1493C363.5598,-389.6744 366.5335,-398.5963 373.096,-398.5963 377.4026,-398.5963 380.1636,-394.754 381.3791,-389.1377"/>
<polygon fill="#000000" stroke="#000000" points="384.8724,-389.352 382.0169,-379.1493 377.8867,-388.9059 384.8724,-389.352"/>
<text text-anchor="middle" x="373.096" y="-402.3963" font-family="Times,serif" font-size="14.00" fill="#000000">L</text>
</g>
<!-- s13&#45;&gt;s13 -->
<g id="edge22" class="edge">
<title>s13&#45;&gt;s13</title>
<path fill="none" stroke="#000000" d="M463.923,-509.1493C463.3078,-519.6744 466.2814,-528.5963 472.8439,-528.5963 477.1506,-528.5963 479.9116,-524.754 481.1271,-519.1377"/>
<polygon fill="#000000" stroke="#000000" points="484.6204,-519.352 481.7648,-509.1493 477.6347,-518.9059 484.6204,-519.352"/>
<text text-anchor="middle" x="472.8439" y="-532.3963" font-family="Times,serif" font-size="14.00" fill="#000000">D</text>
</g>
</g>
</svg>
